<svg width="238" height="54" xmlns="http://www.w3.org/2000/svg">
  <g fill-rule="nonzero" fill="none">
    <path d="M46.458 29.125c0 12.824-10.308 23.192-23.058 23.192S.342 41.95.342 29.125 10.651 5.933 23.4 5.933c12.75 0 23.058 10.368 23.058 23.192" fill="#FFF"/>
    <path d="M15.262 29.125c0-.614-.068-1.16-.271-1.705-.204-.478-.475-.955-.882-1.364-.339-.41-.814-.682-1.288-.887a4.42 4.42 0 0 0-1.696-.341H9.16c-.136 0-.272.068-.407.136-.136.137-.136.273-.136.41v7.298c0 .137.068.273.136.41.135.136.27.136.407.136h1.966c.61 0 1.153-.136 1.696-.341.474-.205.95-.478 1.288-.887.34-.41.678-.818.882-1.364.136-.341.271-.887.271-1.5m-1.085 0c0 .613-.136 1.159-.407 1.636-.271.478-.61.887-1.085 1.16-.475.273-1.017.41-1.628.41H9.701v-6.48h1.356c.61 0 1.153.136 1.628.408.475.273.814.682 1.085 1.16.271.477.407 1.091.407 1.705m16.887 3.41-3.052-7.298c-.068-.273-.271-.41-.543-.41-.27 0-.407.137-.542.41l-2.984 7.23c-.068.205-.068.41 0 .546.135.205.271.273.475.273.067 0 .203 0 .27-.068.069-.068.204-.136.204-.273l.61-1.5h3.866l.61 1.5a.941.941 0 0 0 .204.273c.068.068.204.068.34.068.203 0 .338-.068.474-.273.068-.068.136-.273.068-.477m-2.035-1.978h-3.12l1.56-3.82 1.56 3.82Zm-6.036 1.978-3.051-7.299c-.068-.273-.272-.41-.543-.41s-.407.137-.543.41l-2.983 7.23c-.068.205-.068.41 0 .546.135.205.27.273.474.273.068 0 .204 0 .272-.068.067-.068.203-.136.203-.273l.61-1.5h3.866l.61 1.5c.068.137.136.205.204.273.068.068.203.068.339.068.203 0 .339-.068.475-.273.135-.068.135-.273.067-.477m-1.966-1.978h-3.12l1.56-3.82 1.56 3.82Zm17.904-1.433c0-.614-.068-1.16-.272-1.705-.203-.478-.474-.955-.881-1.364-.34-.41-.814-.682-1.289-.887a4.42 4.42 0 0 0-1.695-.341h-1.967c-.136 0-.271.068-.407.136-.136.137-.136.273-.136.41v7.298c0 .137.068.273.136.41.136.136.271.136.407.136h1.967c.61 0 1.153-.136 1.695-.341.475-.205.95-.478 1.289-.887.339-.41.678-.818.881-1.364.204-.341.272-.887.272-1.5m-1.018 0c0 .613-.135 1.159-.407 1.636-.27.478-.61.887-1.085 1.16-.474.273-1.017.41-1.627.41h-1.357v-6.48h1.357c.61 0 1.153.136 1.627.408.475.273.814.682 1.085 1.16.272.477.407 1.091.407 1.705" fill="#0060AF"/>
    <path d="M190.707 13.846a.777.777 0 0 1 .204.546v7.435c0 .682-.136 1.296-.475 1.841-.271.546-.746.955-1.22 1.228-.543.273-1.154.478-1.832.478-.678 0-1.288-.137-1.831-.478-.543-.273-.95-.75-1.22-1.228-.272-.545-.475-1.16-.475-1.841 0-.205.067-.41.203-.546a.768.768 0 0 1 .543-.205c.203 0 .406.068.542.205a.777.777 0 0 1 .204.546c0 .409.067.818.27 1.16.204.34.408.613.679.75.271.204.678.272 1.017.272.407 0 .746-.068 1.018-.272.27-.205.542-.41.746-.75.203-.342.27-.683.27-1.16v-7.435c0-.205.069-.41.204-.546a.768.768 0 0 1 .543-.205c.271 0 .475.068.61.205Zm12.072 10.3c.135.273.068.546-.068.75a.711.711 0 0 1-.61.341c-.136 0-.272-.068-.407-.136-.136-.068-.204-.205-.272-.341l-.813-2.047h-5.29l-.814 2.047c-.068.136-.203.273-.271.34-.136.069-.272.137-.407.137a.711.711 0 0 1-.61-.34c-.136-.205-.136-.478-.068-.751l4.137-9.96c.135-.34.406-.545.746-.545.339 0 .61.205.746.546l4 9.959Zm-2.78-2.729-2.103-5.252-2.17 5.252h4.272Zm14.377-7.776a.768.768 0 0 0-.543.205.777.777 0 0 0-.203.546v4.229h-6.85v-4.23a.777.777 0 0 0-.203-.545.768.768 0 0 0-.543-.205.768.768 0 0 0-.543.205.777.777 0 0 0-.203.546v10.095c0 .205.068.41.203.546.136.136.34.204.543.204a.768.768 0 0 0 .543-.204.777.777 0 0 0 .203-.546v-4.434h6.85v4.434c0 .205.067.41.203.546.136.136.34.204.543.204a.768.768 0 0 0 .542-.204.777.777 0 0 0 .204-.546V14.46a.777.777 0 0 0-.204-.546c-.135-.205-.271-.273-.542-.273Zm12.003 10.437c.204.272.204.545.068.818-.135.273-.339.41-.678.41-.136 0-.271 0-.407-.069a.531.531 0 0 1-.271-.273l-2.51-4.092h-2.17v3.683c0 .205-.067.41-.203.546a.768.768 0 0 1-.543.204.768.768 0 0 1-.542-.204.777.777 0 0 1-.204-.546V14.528c0-.205.068-.41.204-.546a.768.768 0 0 1 .542-.204h2.645c.746 0 1.425.136 1.967.477.543.341 1.017.75 1.356 1.296.34.546.475 1.16.475 1.91 0 .682-.135 1.296-.475 1.774-.339.545-.746.955-1.356 1.227-.068 0-.136.069-.136.069l2.238 3.547Zm-4.069-4.707c.475 0 .882-.068 1.221-.273.34-.205.61-.41.814-.75.203-.341.271-.682.271-1.092 0-.409-.068-.818-.271-1.16a2.345 2.345 0 0 0-.814-.818c-.339-.204-.746-.273-1.22-.273h-1.9v4.298h1.9v.068Zm14.242 4.434h-5.9V20.12h4.205a.768.768 0 0 0 .542-.204c.136-.137.204-.273.204-.546s-.068-.41-.204-.478a.768.768 0 0 0-.542-.204h-4.205v-3.615h5.9a.768.768 0 0 0 .543-.205.62.62 0 0 0 .203-.477.777.777 0 0 0-.203-.546.768.768 0 0 0-.543-.205h-6.646a.768.768 0 0 0-.543.205.777.777 0 0 0-.203.546v10.095c0 .205.068.41.203.546.136.136.34.204.543.204h6.646a.768.768 0 0 0 .543-.204.777.777 0 0 0 .203-.546c0-.205-.068-.41-.203-.478a.768.768 0 0 0-.543-.204ZM194.166 33.082a.62.62 0 0 1 .203.477c0 .205 0 .341-.135.546l-4.002 6.139v3.479c0 .204-.067.409-.203.545a.768.768 0 0 1-.543.205.768.768 0 0 1-.542-.205.777.777 0 0 1-.204-.545v-3.48l-3.933-6.138c-.136-.205-.203-.41-.136-.614 0-.205.136-.341.272-.478a.73.73 0 0 1 .474-.204c.136 0 .272.068.407.136.136.068.204.205.272.341l3.458 5.525 3.527-5.593c.068-.136.203-.205.271-.273.136-.068.271-.068.407-.068.136.068.34.136.407.205Zm9.63 1.296a.768.768 0 0 0 .543-.205.62.62 0 0 0 .203-.478.777.777 0 0 0-.203-.545.768.768 0 0 0-.543-.205h-6.646a.768.768 0 0 0-.543.205.777.777 0 0 0-.203.545v10.028c0 .204.068.409.203.545.136.137.34.205.543.205h6.646a.768.768 0 0 0 .543-.205.777.777 0 0 0 .203-.545c0-.205-.068-.41-.203-.478a.768.768 0 0 0-.543-.204h-5.9v-3.684h4.205a.768.768 0 0 0 .542-.205c.136-.136.204-.272.204-.545a.777.777 0 0 0-.204-.546.768.768 0 0 0-.542-.205h-4.205v-3.615h5.9v.137Zm12.546 9.072c.136.273.068.545-.067.75a.711.711 0 0 1-.61.341c-.136 0-.272-.068-.408-.136-.135-.068-.203-.205-.271-.341l-.814-2.047h-5.29l-.813 2.047a1.486 1.486 0 0 1-.272.34c-.135.069-.271.137-.407.137a.711.711 0 0 1-.61-.34c-.136-.206-.136-.478-.068-.751l4.137-9.96c.136-.34.407-.545.746-.545.34 0 .61.205.746.546l4.001 9.959Zm-2.712-2.729-2.103-5.252-2.17 5.252h4.273Zm12.817 2.592c.204.273.204.546.068.819-.136.273-.339.41-.678.41-.136 0-.271 0-.407-.069a.531.531 0 0 1-.271-.273l-2.51-4.093h-2.17v3.684c0 .204-.068.41-.203.546a.768.768 0 0 1-.543.204.768.768 0 0 1-.542-.204.777.777 0 0 1-.204-.546V33.764c0-.205.068-.41.204-.546a.768.768 0 0 1 .542-.205h2.645c.746 0 1.424.137 1.967.478.542.34 1.017.75 1.356 1.296.34.546.475 1.16.475 1.91 0 .682-.136 1.296-.475 1.773-.339.546-.746.955-1.356 1.228-.068 0-.136.068-.136.068l2.238 3.547Zm-4.069-4.706c.475 0 .882-.068 1.22-.273.34-.205.611-.41.815-.75.203-.341.271-.683.271-1.092 0-.41-.068-.818-.271-1.16a2.345 2.345 0 0 0-.814-.818c-.34-.205-.746-.273-1.22-.273h-1.9v4.298h1.9v.068Zm13.632.34c-.679-.613-1.56-.954-2.713-1.09-.746-.069-1.357-.205-1.763-.41-.407-.204-.679-.41-.814-.682a1.897 1.897 0 0 1-.204-.887c0-.614.272-1.023.746-1.296.475-.273 1.085-.409 1.831-.409.407 0 .746.068 1.085.205.34.136.543.272.814.477.204.205.407.41.543.75.135.205.271.341.475.41.203.068.406.068.61-.069.136-.136.271-.272.271-.477 0-.205 0-.41-.203-.614-.272-.41-.543-.75-.882-1.023-.339-.273-.746-.546-1.153-.682-.475-.137-.95-.273-1.56-.273-.746 0-1.492.136-2.102.341a3.44 3.44 0 0 0-1.492 1.023 2.786 2.786 0 0 0-.542 1.637c0 .887.339 1.637 1.017 2.251.678.614 1.627.955 2.848 1.092.95.068 1.628.34 2.035.75.407.41.61.887.61 1.432 0 .41-.136.75-.34 1.024-.27.272-.542.477-.949.614a3.928 3.928 0 0 1-2.509 0c-.407-.137-.678-.273-.95-.478-.27-.205-.474-.41-.61-.682a.613.613 0 0 0-.407-.41c-.203-.068-.339-.136-.542-.068-.271.069-.407.137-.543.341-.135.205-.135.342 0 .546.204.478.475.887.95 1.228.407.341.95.614 1.492.819.542.204 1.153.272 1.83.272.543 0 1.018-.068 1.56-.204.475-.137.95-.341 1.357-.614.407-.273.678-.614.95-1.023.203-.41.339-.887.339-1.501-.136-.955-.475-1.705-1.085-2.32ZM122.618 26.806c.678 0 1.153-.546 1.153-1.16 0-.682-.543-1.16-1.153-1.16-.678 0-1.153.547-1.153 1.16 0 .614.543 1.16 1.153 1.16Zm3.187 0c.679 0 1.153-.546 1.153-1.16 0-.682-.542-1.16-1.153-1.16-.678 0-1.153.547-1.153 1.16 0 .614.475 1.16 1.153 1.16Zm-6.374-.068c.678 0 1.152-.546 1.152-1.16 0-.682-.542-1.16-1.152-1.16-.61 0-1.153.546-1.153 1.16 0 .682.474 1.16 1.153 1.16Zm-3.256 0c.678 0 1.153-.546 1.153-1.16 0-.682-.542-1.16-1.153-1.16-.678 0-1.153.546-1.153 1.16 0 .614.543 1.16 1.153 1.16Zm-1.424-3.274c.678 0 1.153-.546 1.153-1.16 0-.682-.543-1.16-1.153-1.16-.678 0-1.153.546-1.153 1.16-.068.614.475 1.16 1.153 1.16Zm3.527 0c.678 0 1.153-.546 1.153-1.16 0-.614-.543-1.16-1.153-1.16-.679 0-1.153.546-1.153 1.16 0 .614.474 1.16 1.153 1.16Zm3.39 0c.679 0 1.153-.546 1.153-1.16 0-.682-.542-1.16-1.152-1.16-.61 0-1.153.546-1.153 1.16 0 .614.542 1.16 1.153 1.16Zm3.324 0c.678 0 1.152-.546 1.152-1.16 0-.614-.542-1.16-1.152-1.16-.61 0-1.153.546-1.153 1.16 0 .614.474 1.16 1.153 1.16Zm-1.289-3.138c.678 0 1.153-.546 1.153-1.16 0-.614-.543-1.16-1.153-1.16s-1.153.546-1.153 1.16c0 .614.475 1.16 1.153 1.16Zm-3.594 0c.678 0 1.153-.546 1.153-1.16 0-.682-.543-1.16-1.153-1.16-.678 0-1.153.546-1.153 1.16 0 .682.542 1.16 1.153 1.16Zm-3.662.136c.678 0 1.152-.545 1.152-1.16 0-.681-.542-1.159-1.152-1.159-.61 0-1.153.546-1.153 1.16-.068.682.474 1.16 1.153 1.16Zm-4.07.341c.679 0 1.153-.545 1.153-1.16 0-.681-.542-1.159-1.153-1.159-.678 0-1.152.546-1.152 1.16 0 .614.542 1.16 1.152 1.16Zm-1.56 2.797c.679 0 1.154-.546 1.154-1.16 0-.682-.543-1.16-1.153-1.16-.679 0-1.153.547-1.153 1.16 0 .614.542 1.16 1.153 1.16Zm-2.983-2.046c.678 0 1.153-.546 1.153-1.16 0-.682-.543-1.16-1.153-1.16-.679 0-1.153.546-1.153 1.16-.068.682.474 1.16 1.153 1.16Zm-1.831-3.684c.678 0 1.152-.545 1.152-1.16 0-.681-.542-1.159-1.152-1.159-.61 0-1.153.546-1.153 1.16 0 .614.474 1.16 1.153 1.16Zm3.39.955c.679 0 1.153-.545 1.153-1.16 0-.681-.542-1.159-1.153-1.159-.61 0-1.152.546-1.152 1.16 0 .682.542 1.16 1.152 1.16Zm1.628-2.66c.678 0 1.153-.546 1.153-1.16 0-.682-.543-1.16-1.153-1.16-.678 0-1.153.547-1.153 1.16-.068.614.475 1.16 1.153 1.16Zm2.916 1.842c.678 0 1.153-.546 1.153-1.16 0-.614-.542-1.16-1.153-1.16-.61 0-1.153.546-1.153 1.16 0 .614.543 1.16 1.153 1.16Zm2.78-3.82c.679 0 1.154-.546 1.154-1.16 0-.614-.543-1.16-1.153-1.16-.678 0-1.153.546-1.153 1.16 0 .614.475 1.16 1.153 1.16Zm1.357 3.41c.678 0 1.153-.545 1.153-1.16 0-.613-.542-1.159-1.153-1.159-.678 0-1.153.546-1.153 1.16 0 .614.475 1.16 1.153 1.16Zm3.798-.204c.678 0 1.153-.546 1.153-1.16 0-.614-.543-1.16-1.153-1.16-.678 0-1.153.546-1.153 1.16 0 .614.543 1.16 1.153 1.16Zm2.713-8.254c.678 0 1.153-.546 1.153-1.16 0-.613-.475-1.227-1.153-1.227s-1.153.545-1.153 1.16c0 .613.474 1.227 1.153 1.227Zm-9.36.273c.679 0 1.154-.546 1.154-1.16 0-.682-.543-1.16-1.153-1.16s-1.153.547-1.153 1.16c0 .614.542 1.16 1.153 1.16Zm4.002-3.41c.678 0 1.153-.546 1.153-1.16 0-.682-.543-1.16-1.153-1.16-.678 0-1.153.546-1.153 1.16-.068.614.475 1.16 1.153 1.16Zm-6.646 7.435c.678 0 1.153-.546 1.153-1.16 0-.682-.543-1.16-1.153-1.16s-1.153.546-1.153 1.16c-.068.614.475 1.16 1.153 1.16Zm-3.255-1.228c.678 0 1.153-.546 1.153-1.16 0-.682-.543-1.16-1.153-1.16-.679 0-1.153.546-1.153 1.16 0 .614.542 1.16 1.153 1.16Zm-1.628 2.796c.678 0 1.153-.545 1.153-1.16 0-.613-.543-1.159-1.153-1.159-.678 0-1.153.546-1.153 1.16 0 .614.475 1.16 1.153 1.16Zm3.255-5.593c.678 0 1.153-.546 1.153-1.16 0-.682-.542-1.16-1.153-1.16-.678 0-1.153.547-1.153 1.16 0 .614.543 1.16 1.153 1.16Zm-3.323-.819c.678 0 1.153-.545 1.153-1.16 0-.613-.542-1.159-1.153-1.159-.678 0-1.153.546-1.153 1.16 0 .614.543 1.16 1.153 1.16Zm-1.695 2.934c.678 0 1.153-.546 1.153-1.16 0-.682-.543-1.16-1.153-1.16-.678 0-1.153.546-1.153 1.16 0 .614.542 1.16 1.153 1.16Zm6.917 15.143c.678 0 1.153-.546 1.153-1.16 0-.614-.542-1.16-1.153-1.16-.678 0-1.153.546-1.153 1.16 0 .614.543 1.16 1.153 1.16Zm-25.838-1.092c0-.682-.543-1.16-1.153-1.16-.679 0-1.153.546-1.153 1.16 0 .682.542 1.16 1.153 1.16.61.068 1.153-.478 1.153-1.16Zm-3.188.068c0-.682-.542-1.16-1.153-1.16-.61 0-1.153.547-1.153 1.16 0 .683.543 1.16 1.153 1.16s1.153-.546 1.153-1.16Zm6.375-.068c0-.682-.543-1.16-1.153-1.16-.678 0-1.153.546-1.153 1.16 0 .682.543 1.16 1.153 1.16s1.153-.478 1.153-1.16Zm3.255-.068c0-.682-.542-1.16-1.153-1.16-.678 0-1.153.546-1.153 1.16 0 .682.543 1.16 1.153 1.16.61.068 1.153-.478 1.153-1.16Zm1.492-3.206c0-.682-.542-1.16-1.153-1.16-.678 0-1.153.546-1.153 1.16 0 .682.543 1.16 1.153 1.16s1.153-.546 1.153-1.16Zm-3.594-.068c0-.682-.543-1.16-1.153-1.16-.678 0-1.153.546-1.153 1.16 0 .614.543 1.16 1.153 1.16.61.068 1.153-.478 1.153-1.16Zm-3.391.068c0-.682-.543-1.16-1.153-1.16-.678 0-1.153.546-1.153 1.16 0 .682.543 1.16 1.153 1.16s1.153-.546 1.153-1.16Zm-3.323 0c0-.682-.543-1.16-1.153-1.16-.678 0-1.153.546-1.153 1.16 0 .614.543 1.16 1.153 1.16s1.153-.546 1.153-1.16Zm1.356-3.206c0-.682-.542-1.16-1.153-1.16-.678 0-1.153.546-1.153 1.16 0 .614.543 1.16 1.153 1.16.61.068 1.153-.478 1.153-1.16Zm3.527.068c0-.682-.543-1.16-1.153-1.16-.678 0-1.153.546-1.153 1.16 0 .682.543 1.16 1.153 1.16s1.153-.478 1.153-1.16Zm3.73.137c0-.682-.543-1.16-1.153-1.16-.678 0-1.153.546-1.153 1.16 0 .682.543 1.16 1.153 1.16s1.153-.478 1.153-1.16Zm4.001.273c0-.683-.542-1.16-1.153-1.16-.678 0-1.153.546-1.153 1.16 0 .682.543 1.16 1.153 1.16.61.067 1.153-.478 1.153-1.16Zm1.56 2.865c0-.683-.543-1.16-1.153-1.16-.678 0-1.153.546-1.153 1.16 0 .682.543 1.16 1.153 1.16s1.153-.547 1.153-1.16Zm3.052-2.047c0-.682-.543-1.16-1.153-1.16s-1.221.478-1.221 1.16c0 .682.543 1.16 1.153 1.16s1.22-.478 1.22-1.16Zm2.373-1.91c-.678 0-1.153.546-1.153 1.16 0 .682.543 1.16 1.153 1.16.678 0 1.153-.546 1.153-1.16 0-.614-.475-1.16-1.153-1.16Zm-.61-1.841c0-.683-.543-1.16-1.153-1.16-.678 0-1.153.546-1.153 1.16 0 .682.543 1.16 1.153 1.16.61.067 1.153-.478 1.153-1.16Zm-3.391 1.023c0-.682-.543-1.16-1.153-1.16-.678 0-1.153.546-1.153 1.16 0 .682.543 1.16 1.153 1.16s1.153-.478 1.153-1.16Zm-1.56-2.729c0-.682-.542-1.16-1.153-1.16-.61 0-1.153.546-1.153 1.16 0 .682.543 1.16 1.153 1.16s1.153-.478 1.153-1.16Zm-2.984 1.91c0-.682-.542-1.16-1.153-1.16-.678 0-1.153.546-1.153 1.16 0 .614.543 1.16 1.153 1.16s1.153-.546 1.153-1.16Zm-1.56-2.797c0-.682-.542-1.16-1.152-1.16-.679 0-1.153.547-1.153 1.16 0 .683.542 1.16 1.153 1.16.61.068 1.152-.477 1.152-1.16Zm-2.509 2.32c0-.682-.542-1.16-1.153-1.16-.678 0-1.153.546-1.153 1.16 0 .614.543 1.16 1.153 1.16.61.067 1.153-.478 1.153-1.16Zm-3.865-.205c0-.682-.543-1.16-1.153-1.16-.679 0-1.153.546-1.153 1.16 0 .614.542 1.16 1.153 1.16.61.068 1.153-.478 1.153-1.16Zm.135-6.003c0-.682-.542-1.16-1.153-1.16-.678 0-1.153.546-1.153 1.16 0 .614.543 1.16 1.153 1.16s1.153-.546 1.153-1.16Zm4.68 1.16c0-.682-.543-1.16-1.153-1.16-.678 0-1.153.546-1.153 1.16 0 .614.542 1.16 1.153 1.16.61.068 1.153-.478 1.153-1.16Zm2.916-1.774c0-.682-.543-1.16-1.153-1.16s-1.153.547-1.153 1.16c0 .683.543 1.16 1.153 1.16s1.153-.546 1.153-1.16Zm1.56 2.66c0-.681-.543-1.159-1.153-1.159-.678 0-1.153.546-1.153 1.16 0 .682.542 1.16 1.153 1.16.678.068 1.153-.478 1.153-1.16Zm3.255-1.227c0-.682-.543-1.16-1.153-1.16-.678 0-1.153.546-1.153 1.16 0 .682.543 1.16 1.153 1.16.61.068 1.153-.478 1.153-1.16Zm1.627 2.797c0-.683-.542-1.16-1.152-1.16-.679 0-1.153.546-1.153 1.16 0 .614.542 1.16 1.153 1.16.61.067 1.152-.478 1.152-1.16Zm2.306-1.57c-.678 0-1.153.546-1.153 1.16 0 .614.543 1.16 1.153 1.16.678 0 1.153-.546 1.153-1.16 0-.614-.475-1.16-1.153-1.16Zm0-6.275c-.678 0-1.153.546-1.153 1.16 0 .682.543 1.16 1.153 1.16.678 0 1.153-.546 1.153-1.16 0-.614-.475-1.16-1.153-1.16Zm-5.56 2.251c0-.682-.543-1.16-1.154-1.16-.678 0-1.153.546-1.153 1.16 0 .682.543 1.16 1.153 1.16.61.068 1.153-.478 1.153-1.16Zm3.322-.75c0-.682-.542-1.16-1.153-1.16-.678 0-1.153.546-1.153 1.16 0 .614.543 1.16 1.153 1.16s1.153-.546 1.153-1.16Zm1.696 2.933c0-.682-.543-1.16-1.153-1.16-.678 0-1.153.546-1.153 1.16 0 .682.542 1.16 1.153 1.16.61 0 1.153-.546 1.153-1.16Zm-6.918 15.075c0-.682-.542-1.16-1.153-1.16-.678 0-1.152.546-1.152 1.16 0 .614.542 1.16 1.152 1.16.61.068 1.153-.478 1.153-1.16Zm28.077 3.615c0 .682.542 1.16 1.153 1.16.678 0 1.153-.546 1.153-1.16 0-.682-.543-1.16-1.153-1.16s-1.153.546-1.153 1.16Zm-3.12 0c0 .682.543 1.16 1.153 1.16.678 0 1.153-.546 1.153-1.16 0-.682-.542-1.16-1.153-1.16-.61 0-1.153.546-1.153 1.16Zm-.27 3.547c0 .682.542 1.16 1.152 1.16.678 0 1.153-.546 1.153-1.16 0-.682-.543-1.16-1.153-1.16-.61-.068-1.153.478-1.153 1.16Zm3.186-.068c0 .682.543 1.16 1.153 1.16.679 0 1.153-.546 1.153-1.16 0-.614-.542-1.16-1.153-1.16-.678 0-1.153.478-1.153 1.16Zm-6.374.068c0 .682.542 1.16 1.153 1.16.61 0 1.152-.546 1.152-1.16 0-.614-.542-1.16-1.152-1.16-.61 0-1.153.478-1.153 1.16Zm-3.256.068c0 .682.543 1.16 1.153 1.16.678 0 1.153-.546 1.153-1.16 0-.682-.542-1.16-1.153-1.16-.61-.068-1.153.478-1.153 1.16Zm-1.492 3.206c0 .682.543 1.16 1.153 1.16.678 0 1.153-.546 1.153-1.16 0-.682-.542-1.16-1.153-1.16-.61 0-1.153.546-1.153 1.16Zm3.595 0c0 .682.542 1.16 1.153 1.16.678 0 1.153-.546 1.153-1.16 0-.682-.543-1.16-1.153-1.16-.679 0-1.153.546-1.153 1.16Zm3.39 0c0 .682.543 1.16 1.154 1.16.61 0 1.152-.546 1.152-1.16 0-.682-.542-1.16-1.152-1.16-.61 0-1.153.546-1.153 1.16Zm6.647 2.865c0 .682.542 1.16 1.153 1.16.678 0 1.153-.546 1.153-1.16 0-.682-.543-1.16-1.153-1.16s-1.153.546-1.153 1.16Zm-4.68.341c0 .682.543 1.16 1.153 1.16s1.153-.546 1.153-1.16c0-.682-.542-1.16-1.153-1.16-.61 0-1.153.478-1.153 1.16Zm-3.526-.068c0 .682.542 1.16 1.153 1.16.678 0 1.153-.546 1.153-1.16 0-.614-.543-1.16-1.153-1.16-.61-.068-1.153.478-1.153 1.16Zm-3.73-.136c0 .682.542 1.16 1.153 1.16.61 0 1.153-.547 1.153-1.16 0-.683-.543-1.16-1.153-1.16s-1.153.477-1.153 1.16Zm-4.001-.273c0 .682.542 1.16 1.152 1.16.679 0 1.153-.546 1.153-1.16 0-.682-.542-1.16-1.153-1.16-.61-.068-1.152.478-1.152 1.16Zm-1.56-2.865c0 .682.542 1.16 1.153 1.16.678 0 1.153-.546 1.153-1.16 0-.614-.543-1.16-1.153-1.16s-1.153.546-1.153 1.16Zm-3.052 2.046c0 .682.542 1.16 1.153 1.16.678 0 1.153-.546 1.153-1.16 0-.682-.543-1.16-1.153-1.16s-1.153.478-1.153 1.16Zm-1.763 3.752c0 .682.542 1.16 1.153 1.16.61 0 1.152-.546 1.152-1.16 0-.682-.542-1.16-1.152-1.16-.61 0-1.153.478-1.153 1.16Zm3.39-1.023c0 .682.543 1.16 1.153 1.16s1.153-.546 1.153-1.16c0-.682-.542-1.16-1.153-1.16-.61 0-1.152.478-1.152 1.16Zm1.56 2.728c0 .682.543 1.16 1.153 1.16.678 0 1.153-.546 1.153-1.16 0-.682-.542-1.16-1.153-1.16-.61-.068-1.153.478-1.153 1.16Zm2.984-1.91c0 .682.543 1.16 1.153 1.16s1.153-.546 1.153-1.16c0-.682-.542-1.16-1.153-1.16-.61 0-1.153.546-1.153 1.16Zm1.56 2.797c0 .682.543 1.16 1.153 1.16.678 0 1.153-.546 1.153-1.16 0-.682-.543-1.16-1.153-1.16-.678-.068-1.153.478-1.153 1.16Zm2.51-2.388c0 .683.542 1.16 1.152 1.16.679 0 1.153-.546 1.153-1.16 0-.682-.542-1.16-1.153-1.16-.61 0-1.153.547-1.153 1.16Zm3.865.273c0 .682.543 1.16 1.153 1.16.678 0 1.153-.546 1.153-1.16 0-.682-.543-1.16-1.153-1.16-.61-.067-1.153.478-1.153 1.16Zm5.697 9.96c0 .681.542 1.159 1.153 1.159.61 0 1.153-.546 1.153-1.16 0-.682-.543-1.16-1.153-1.16s-1.153.478-1.153 1.16Zm-7.46-2.525c0 .683.542 1.16 1.153 1.16.61 0 1.153-.546 1.153-1.16 0-.613-.543-1.16-1.153-1.16s-1.153.547-1.153 1.16Zm-5.968-.818c0 .682.542 1.16 1.153 1.16.678 0 1.153-.546 1.153-1.16 0-.682-.543-1.16-1.153-1.16-.678 0-1.153.546-1.153 1.16Zm-1.628-2.729c0 .683.543 1.16 1.153 1.16s1.153-.546 1.153-1.16c0-.682-.543-1.16-1.153-1.16s-1.153.547-1.153 1.16Zm-3.187 1.296c0 .683.542 1.16 1.153 1.16.678 0 1.153-.546 1.153-1.16 0-.613-.543-1.16-1.153-1.16-.61-.067-1.153.478-1.153 1.16Zm-1.628-2.796c0 .682.543 1.16 1.153 1.16.678 0 1.153-.546 1.153-1.16 0-.614-.543-1.16-1.153-1.16-.678-.068-1.153.478-1.153 1.16Zm3.255 5.593c0 .682.543 1.16 1.153 1.16.678 0 1.153-.546 1.153-1.16 0-.682-.542-1.16-1.153-1.16-.61-.068-1.153.478-1.153 1.16Zm-3.323.75c0 .683.543 1.16 1.153 1.16.678 0 1.153-.546 1.153-1.16 0-.613-.542-1.16-1.153-1.16-.61 0-1.153.547-1.153 1.16Zm-1.695-2.933c0 .682.542 1.16 1.153 1.16.678 0 1.153-.546 1.153-1.16 0-.682-.543-1.16-1.153-1.16s-1.153.478-1.153 1.16Zm6.917-15.074c0 .682.543 1.16 1.153 1.16.678 0 1.153-.547 1.153-1.16 0-.683-.542-1.16-1.153-1.16-.61-.068-1.153.477-1.153 1.16Zm6.918-3.684c0 .682.542 1.16 1.153 1.16.678 0 1.153-.546 1.153-1.16 0-.682-.543-1.16-1.153-1.16s-1.153.546-1.153 1.16Zm-3.12 0c0 .682.543 1.16 1.153 1.16.678 0 1.153-.546 1.153-1.16 0-.682-.543-1.16-1.153-1.16s-1.153.546-1.153 1.16Zm-3.12 0c0 .682.543 1.16 1.153 1.16.679 0 1.153-.546 1.153-1.16 0-.682-.542-1.16-1.153-1.16-.61 0-1.153.546-1.153 1.16Zm-31.128 0c0 .682.543 1.16 1.153 1.16.678 0 1.153-.546 1.153-1.16 0-.682-.543-1.16-1.153-1.16s-1.153.546-1.153 1.16Zm3.12 0c0 .682.542 1.16 1.153 1.16.678 0 1.152-.546 1.152-1.16 0-.682-.542-1.16-1.152-1.16-.61 0-1.153.546-1.153 1.16Zm1.492 2.32c-.679 0-1.153.545-1.153 1.159 0 .682.542 1.16 1.153 1.16.678 0 1.153-.546 1.153-1.16 0-.614-.543-1.16-1.153-1.16Zm-3.188 0c-.678 0-1.153.545-1.153 1.159s.543 1.16 1.153 1.16 1.153-.546 1.153-1.16c0-.614-.475-1.16-1.153-1.16Zm6.375 0c-.678 0-1.153.545-1.153 1.159s.543 1.16 1.153 1.16c.678 0 1.153-.546 1.153-1.16 0-.614-.543-1.16-1.153-1.16Zm3.188.067c-.679 0-1.153.546-1.153 1.16 0 .682.542 1.16 1.153 1.16.678 0 1.152-.546 1.152-1.16.068-.614-.474-1.16-1.152-1.16Zm1.492 3.275c-.679 0-1.153.545-1.153 1.16 0 .681.542 1.159 1.153 1.159.678 0 1.152-.546 1.152-1.16.068-.614-.474-1.16-1.152-1.16Zm-3.527 0c-.678 0-1.153.545-1.153 1.16 0 .681.543 1.159 1.153 1.159.678 0 1.153-.546 1.153-1.16 0-.614-.543-1.16-1.153-1.16Zm-3.39 0c-.68 0-1.154.545-1.154 1.16 0 .681.543 1.159 1.153 1.159.678 0 1.153-.546 1.153-1.16 0-.614-.543-1.16-1.153-1.16Zm-3.324 0c-.678 0-1.153.545-1.153 1.16 0 .681.543 1.159 1.153 1.159.678 0 1.153-.546 1.153-1.16 0-.614-.543-1.16-1.153-1.16Zm1.289 3.137c-.679 0-1.153.546-1.153 1.16 0 .682.542 1.16 1.153 1.16.678 0 1.152-.546 1.152-1.16.068-.614-.474-1.16-1.152-1.16Zm3.526-.068c-.678 0-1.153.546-1.153 1.16 0 .614.543 1.16 1.153 1.16.678 0 1.153-.546 1.153-1.16 0-.614-.475-1.16-1.153-1.16Zm3.73-.068c-.678 0-1.153.546-1.153 1.16 0 .682.543 1.16 1.153 1.16.678 0 1.153-.547 1.153-1.16.068-.683-.475-1.16-1.153-1.16Zm4.408-.887c-.678 0-1.153.546-1.153 1.16 0 .682.543 1.16 1.153 1.16.678 0 1.153-.546 1.153-1.16 0-.614-.475-1.16-1.153-1.16Zm3.052-3.751c-.678 0-1.153.545-1.153 1.16 0 .681.543 1.159 1.153 1.159s1.153-.546 1.153-1.16c0-.682-.543-1.16-1.153-1.16Zm1.153 3.547c-.678 0-1.153.545-1.153 1.16 0 .681.543 1.159 1.153 1.159s1.153-.546 1.153-1.16c.068-.682-.475-1.16-1.153-1.16Zm3.594.682c-.678 0-1.153.545-1.153 1.16 0 .681.543 1.159 1.153 1.159.678 0 1.153-.546 1.153-1.16 0-.614-.475-1.16-1.153-1.16Zm-1.763 3.001c-.678 0-1.153.546-1.153 1.16 0 .682.543 1.16 1.153 1.16.678 0 1.153-.546 1.153-1.16 0-.614-.543-1.16-1.153-1.16Zm-3.39-.955c-.679 0-1.154.546-1.154 1.16 0 .682.543 1.16 1.153 1.16.678 0 1.153-.546 1.153-1.16 0-.682-.543-1.16-1.153-1.16Zm-1.628 2.66c-.679 0-1.153.546-1.153 1.16 0 .682.542 1.16 1.153 1.16.61 0 1.152-.546 1.152-1.16.068-.614-.474-1.16-1.152-1.16Zm-2.917-1.841c-.678 0-1.153.545-1.153 1.16 0 .681.543 1.159 1.153 1.159.679 0 1.153-.546 1.153-1.16 0-.614-.542-1.16-1.153-1.16Zm-1.56 2.728c-.678 0-1.152.546-1.152 1.16 0 .682.542 1.16 1.153 1.16.678 0 1.152-.546 1.152-1.16 0-.614-.542-1.16-1.152-1.16Zm-2.577-2.32c-.678 0-1.152.547-1.152 1.16 0 .683.542 1.16 1.152 1.16.679 0 1.153-.546 1.153-1.16.068-.613-.474-1.16-1.153-1.16Zm-3.797.206c-.679 0-1.153.545-1.153 1.16 0 .681.542 1.159 1.153 1.159.678 0 1.153-.546 1.153-1.16 0-.614-.543-1.16-1.153-1.16Zm2.17 2.66c-.678 0-1.153.545-1.153 1.16 0 .682.542 1.159 1.153 1.159.678 0 1.153-.546 1.153-1.16.068-.682-.475-1.16-1.153-1.16Zm2.645 2.183c-.678 0-1.153.545-1.153 1.16 0 .613.542 1.159 1.153 1.159.678 0 1.153-.546 1.153-1.16 0-.614-.543-1.16-1.153-1.16Zm2.916 1.841c-.678 0-1.153.546-1.153 1.16 0 .682.543 1.16 1.153 1.16s1.153-.546 1.153-1.16c0-.614-.475-1.16-1.153-1.16Zm1.56-2.728c-.678 0-1.153.546-1.153 1.16 0 .682.542 1.159 1.153 1.159.678 0 1.153-.546 1.153-1.16 0-.613-.475-1.16-1.153-1.16Zm3.187 1.228c-.678 0-1.153.545-1.153 1.16 0 .613.543 1.159 1.153 1.159.678 0 1.153-.546 1.153-1.16 0-.614-.475-1.16-1.153-1.16Zm1.696-2.797c-.679 0-1.153.546-1.153 1.16 0 .613.542 1.16 1.153 1.16.678 0 1.152-.547 1.152-1.16 0-.614-.542-1.16-1.152-1.16Zm3.458.41c-.678 0-1.153.545-1.153 1.159 0 .682.543 1.16 1.153 1.16.678 0 1.153-.546 1.153-1.16 0-.614-.475-1.16-1.153-1.16Zm0 6.275c-.678 0-1.153.545-1.153 1.16 0 .681.543 1.159 1.153 1.159.678 0 1.153-.546 1.153-1.16 0-.682-.475-1.16-1.153-1.16Zm-6.714-1.092c-.678 0-1.153.546-1.153 1.16 0 .682.543 1.16 1.153 1.16.678 0 1.153-.546 1.153-1.16 0-.614-.542-1.16-1.153-1.16Zm3.323.819c-.678 0-1.153.546-1.153 1.16 0 .613.543 1.16 1.153 1.16.679 0 1.153-.547 1.153-1.16 0-.614-.542-1.16-1.153-1.16Zm1.696-2.933c-.678 0-1.153.545-1.153 1.16 0 .681.542 1.159 1.153 1.159.678 0 1.153-.546 1.153-1.16 0-.682-.543-1.16-1.153-1.16Zm-6.985-15.143c-.679 0-1.153.545-1.153 1.16 0 .681.542 1.159 1.153 1.159.678 0 1.153-.546 1.153-1.16.067-.614-.475-1.16-1.153-1.16Zm-8.07-2.456c0 .682.542 1.16 1.152 1.16.678 0 1.153-.546 1.153-1.16 0-.682-.542-1.16-1.153-1.16-.61 0-1.153.546-1.153 1.16Zm3.119 0c0 .682.542 1.16 1.153 1.16.678 0 1.153-.546 1.153-1.16 0-.682-.543-1.16-1.153-1.16-.678 0-1.153.546-1.153 1.16Zm3.12 0c0 .682.542 1.16 1.152 1.16.679 0 1.153-.546 1.153-1.16 0-.682-.542-1.16-1.153-1.16-.678 0-1.152.546-1.152 1.16Zm78.736-2.25c.678 0 1.153-.547 1.153-1.16 0-.683-.542-1.16-1.153-1.16-.61 0-1.153.546-1.153 1.16 0 .613.543 1.16 1.153 1.16Zm3.188 0c.678 0 1.152-.547 1.152-1.16 0-.683-.542-1.16-1.152-1.16-.679 0-1.153.546-1.153 1.16 0 .613.474 1.16 1.153 1.16Zm-6.375-.07c.678 0 1.153-.545 1.153-1.159 0-.682-.543-1.16-1.153-1.16-.678 0-1.153.546-1.153 1.16 0 .682.542 1.16 1.153 1.16Zm-3.188 0c.678 0 1.153-.545 1.153-1.159 0-.682-.542-1.16-1.153-1.16-.678 0-1.153.546-1.153 1.16-.067.614.475 1.16 1.153 1.16Zm-1.492-3.273c.678 0 1.153-.546 1.153-1.16 0-.682-.542-1.16-1.153-1.16-.678 0-1.153.546-1.153 1.16-.067.614.475 1.16 1.153 1.16Zm3.527 0c.678 0 1.153-.546 1.153-1.16 0-.614-.543-1.16-1.153-1.16-.678 0-1.153.546-1.153 1.16 0 .614.542 1.16 1.153 1.16Zm3.39 0c.679 0 1.154-.546 1.154-1.16 0-.682-.543-1.16-1.153-1.16-.678 0-1.153.546-1.153 1.16 0 .614.542 1.16 1.153 1.16Zm3.324 0c.678 0 1.153-.546 1.153-1.16 0-.614-.543-1.16-1.153-1.16-.678 0-1.153.546-1.153 1.16 0 .614.475 1.16 1.153 1.16Zm-1.289-3.138c.678 0 1.153-.546 1.153-1.16 0-.614-.542-1.16-1.153-1.16-.678 0-1.153.546-1.153 1.16 0 .614.475 1.16 1.153 1.16Zm-3.526 0c.678 0 1.153-.546 1.153-1.16 0-.682-.543-1.16-1.153-1.16-.678 0-1.153.546-1.153 1.16-.068.682.475 1.16 1.153 1.16Zm-3.73.136c.678 0 1.153-.545 1.153-1.16 0-.681-.543-1.159-1.153-1.159-.678 0-1.153.546-1.153 1.16-.068.682.475 1.16 1.153 1.16Zm-4.07.341c.679 0 1.154-.545 1.154-1.16 0-.681-.543-1.159-1.153-1.159s-1.153.546-1.153 1.16c0 .614.542 1.16 1.153 1.16Zm-1.491 2.797c.678 0 1.153-.546 1.153-1.16 0-.682-.543-1.16-1.153-1.16s-1.153.547-1.153 1.16c-.068.614.474 1.16 1.153 1.16Zm-3.663-.75c.679 0 1.153-.546 1.153-1.16 0-.682-.542-1.16-1.153-1.16-.678 0-1.152.546-1.152 1.16-.068.682.474 1.16 1.152 1.16Zm-1.22-4.98c.678 0 1.153-.545 1.153-1.16 0-.681-.543-1.159-1.153-1.159-.678 0-1.153.546-1.153 1.16 0 .614.475 1.16 1.153 1.16Zm2.916 1.842c.678 0 1.153-.546 1.153-1.16 0-.682-.543-1.16-1.153-1.16-.678 0-1.153.547-1.153 1.16-.068.614.475 1.16 1.153 1.16Zm2.102-3.547c.678 0 1.153-.546 1.153-1.16 0-.682-.542-1.16-1.153-1.16-.678 0-1.153.547-1.153 1.16-.067.614.475 1.16 1.153 1.16Zm2.916 1.842c.679 0 1.153-.546 1.153-1.16 0-.614-.542-1.16-1.153-1.16-.678 0-1.152.546-1.152 1.16 0 .614.542 1.16 1.152 1.16Zm1.56-2.729c.678 0 1.153-.545 1.153-1.16 0-.681-.542-1.159-1.153-1.159-.61 0-1.153.546-1.153 1.16 0 .614.543 1.16 1.153 1.16Zm2.577 2.32c.679 0 1.153-.546 1.153-1.16 0-.614-.542-1.16-1.153-1.16-.61 0-1.153.546-1.153 1.16 0 .614.475 1.16 1.153 1.16Zm3.798-.205c.678 0 1.153-.546 1.153-1.16 0-.614-.542-1.16-1.153-1.16-.61 0-1.153.546-1.153 1.16 0 .614.543 1.16 1.153 1.16Zm0-7.026c.678 0 1.153-.546 1.153-1.16 0-.682-.542-1.16-1.153-1.16-.61 0-1.153.546-1.153 1.16 0 .614.543 1.16 1.153 1.16Zm-1.763-5.662c.678 0 1.153-.545 1.153-1.16 0-.613-.543-1.159-1.153-1.159-.678 0-1.153.546-1.153 1.16 0 .614.475 1.16 1.153 1.16Zm-5.968 6.003c.678 0 1.153-.546 1.153-1.16 0-.682-.543-1.16-1.153-1.16-.678 0-1.153.547-1.153 1.16 0 .614.475 1.16 1.153 1.16Zm-1.56 2.729c.678 0 1.153-.546 1.153-1.16 0-.682-.543-1.16-1.153-1.16-.678 0-1.153.546-1.153 1.16-.068.614.475 1.16 1.153 1.16Zm-3.255-1.228c.678 0 1.153-.546 1.153-1.16 0-.682-.543-1.16-1.153-1.16s-1.153.546-1.153 1.16c0 .614.542 1.16 1.153 1.16Zm-1.628 2.796c.678 0 1.153-.545 1.153-1.16 0-.613-.542-1.159-1.153-1.159-.61 0-1.153.546-1.153 1.16 0 .614.543 1.16 1.153 1.16Zm3.255-5.593c.679 0 1.153-.546 1.153-1.16 0-.682-.542-1.16-1.153-1.16-.61 0-1.152.547-1.152 1.16 0 .614.542 1.16 1.152 1.16Zm-3.323-.819c.679 0 1.153-.545 1.153-1.16 0-.613-.542-1.159-1.153-1.159-.61 0-1.153.546-1.153 1.16 0 .614.543 1.16 1.153 1.16Zm-1.695 2.934c.678 0 1.153-.546 1.153-1.16 0-.682-.543-1.16-1.153-1.16s-1.153.546-1.153 1.16c0 .614.543 1.16 1.153 1.16Zm6.917 15.143c.679 0 1.153-.546 1.153-1.16 0-.614-.542-1.16-1.153-1.16-.678 0-1.153.546-1.153 1.16 0 .614.543 1.16 1.153 1.16Zm-25.838-1.092c0-.682-.543-1.16-1.153-1.16-.678 0-1.153.546-1.153 1.16 0 .682.542 1.16 1.153 1.16.61.068 1.153-.478 1.153-1.16Zm-3.188.068c0-.682-.542-1.16-1.153-1.16-.678 0-1.153.547-1.153 1.16 0 .683.543 1.16 1.153 1.16.679 0 1.153-.546 1.153-1.16Zm6.375-.068c0-.682-.542-1.16-1.153-1.16-.678 0-1.153.546-1.153 1.16 0 .682.543 1.16 1.153 1.16s1.153-.478 1.153-1.16Zm3.255-.068c0-.682-.542-1.16-1.152-1.16-.61 0-1.153.546-1.153 1.16 0 .682.542 1.16 1.153 1.16.61 0 1.152-.478 1.152-1.16Zm1.492-3.206c0-.682-.542-1.16-1.152-1.16-.61 0-1.153.546-1.153 1.16 0 .682.542 1.16 1.153 1.16.61 0 1.152-.546 1.152-1.16Zm-3.594-.068c0-.682-.542-1.16-1.153-1.16-.61 0-1.153.546-1.153 1.16 0 .614.543 1.16 1.153 1.16s1.153-.478 1.153-1.16Zm-3.39.068c0-.682-.543-1.16-1.154-1.16-.678 0-1.153.546-1.153 1.16 0 .682.543 1.16 1.153 1.16s1.153-.546 1.153-1.16Zm-3.324 0c0-.682-.542-1.16-1.153-1.16-.678 0-1.153.546-1.153 1.16 0 .614.543 1.16 1.153 1.16.678 0 1.153-.546 1.153-1.16Zm1.356-3.206c0-.682-.542-1.16-1.152-1.16-.679 0-1.153.546-1.153 1.16 0 .614.542 1.16 1.153 1.16.61.068 1.152-.478 1.152-1.16Zm3.527.068c0-.682-.543-1.16-1.153-1.16s-1.153.546-1.153 1.16c0 .682.543 1.16 1.153 1.16s1.153-.478 1.153-1.16Zm3.73.137c0-.682-.543-1.16-1.153-1.16-.678 0-1.153.546-1.153 1.16 0 .682.543 1.16 1.153 1.16s1.153-.478 1.153-1.16Zm4.001.273c0-.683-.542-1.16-1.153-1.16-.61 0-1.153.546-1.153 1.16 0 .682.543 1.16 1.153 1.16s1.153-.478 1.153-1.16Zm1.56 2.865c0-.683-.542-1.16-1.153-1.16-.678 0-1.153.546-1.153 1.16 0 .682.543 1.16 1.153 1.16s1.153-.547 1.153-1.16Zm3.052-2.047c0-.682-.543-1.16-1.153-1.16-.678 0-1.153.546-1.153 1.16 0 .682.543 1.16 1.153 1.16s1.153-.478 1.153-1.16Zm2.373-1.91c-.678 0-1.152.546-1.152 1.16 0 .682.542 1.16 1.152 1.16.61 0 1.153-.546 1.153-1.16 0-.614-.474-1.16-1.153-1.16Zm-.61-1.841c0-.683-.542-1.16-1.153-1.16-.678 0-1.153.546-1.153 1.16 0 .682.543 1.16 1.153 1.16.61.067 1.153-.478 1.153-1.16Zm-3.39 1.023c0-.682-.543-1.16-1.154-1.16-.678 0-1.153.546-1.153 1.16 0 .682.543 1.16 1.153 1.16s1.153-.478 1.153-1.16Zm-1.56-2.729c0-.682-.543-1.16-1.153-1.16-.679 0-1.153.546-1.153 1.16 0 .682.542 1.16 1.153 1.16.61.068 1.152-.478 1.152-1.16Zm-2.985 1.91c0-.682-.542-1.16-1.152-1.16-.679 0-1.153.546-1.153 1.16 0 .614.542 1.16 1.153 1.16.61 0 1.152-.546 1.152-1.16Zm-1.56-2.797c0-.682-.542-1.16-1.152-1.16-.678 0-1.153.547-1.153 1.16 0 .683.542 1.16 1.153 1.16.61.068 1.153-.477 1.153-1.16Zm-2.509 2.32c0-.682-.542-1.16-1.153-1.16-.678 0-1.152.546-1.152 1.16 0 .614.542 1.16 1.152 1.16.61.067 1.153-.478 1.153-1.16Zm-3.865-.205c0-.682-.543-1.16-1.153-1.16-.678 0-1.153.546-1.153 1.16 0 .614.542 1.16 1.153 1.16.61.068 1.153-.478 1.153-1.16Zm2.238-2.592c0-.682-.543-1.16-1.153-1.16s-1.22.478-1.22 1.16c0 .682.542 1.16 1.152 1.16.61 0 1.22-.478 1.22-1.16Zm2.577-2.251c0-.682-.543-1.16-1.153-1.16-.678 0-1.153.546-1.153 1.16 0 .614.543 1.16 1.153 1.16.678.068 1.153-.478 1.153-1.16Zm2.916-1.774c0-.682-.543-1.16-1.153-1.16-.678 0-1.153.547-1.153 1.16 0 .683.543 1.16 1.153 1.16.678 0 1.153-.546 1.153-1.16Zm1.628 2.66c0-.681-.543-1.159-1.153-1.159-.678 0-1.153.546-1.153 1.16 0 .682.542 1.16 1.153 1.16.61.068 1.153-.478 1.153-1.16Zm3.187-1.227c0-.682-.542-1.16-1.153-1.16-.678 0-1.153.546-1.153 1.16 0 .682.543 1.16 1.153 1.16.61.068 1.153-.478 1.153-1.16Zm1.628 2.797c0-.683-.543-1.16-1.153-1.16-.678 0-1.153.546-1.153 1.16 0 .614.542 1.16 1.153 1.16.61.067 1.153-.478 1.153-1.16Zm2.305-1.57c-.678 0-1.152.546-1.152 1.16 0 .614.542 1.16 1.152 1.16.61 0 1.153-.546 1.153-1.16 0-.614-.474-1.16-1.153-1.16ZM151.644.614c-.678 0-1.153.545-1.153 1.16 0 .613.543 1.159 1.153 1.159.678 0 1.153-.546 1.153-1.16 0-.614-.475-1.16-1.153-1.16Zm-3.12 7.571c0-.682-.542-1.16-1.152-1.16-.679 0-1.153.546-1.153 1.16 0 .682.542 1.16 1.153 1.16.61.068 1.152-.478 1.152-1.16Zm3.323-.75c0-.682-.542-1.16-1.152-1.16-.679 0-1.153.546-1.153 1.16 0 .614.542 1.16 1.153 1.16.61 0 1.152-.546 1.152-1.16Zm1.696 2.933c0-.682-.543-1.16-1.153-1.16-.678 0-1.153.546-1.153 1.16 0 .682.543 1.16 1.153 1.16s1.153-.546 1.153-1.16Zm-6.917 15.075c0-.682-.543-1.16-1.153-1.16s-1.153.546-1.153 1.16c0 .614.542 1.16 1.153 1.16.61 0 1.153-.478 1.153-1.16Zm28.076 3.615c0 .682.543 1.16 1.153 1.16s1.153-.546 1.153-1.16c0-.682-.543-1.16-1.153-1.16s-1.153.546-1.153 1.16Zm-3.12 0c0 .682.543 1.16 1.153 1.16s1.153-.546 1.153-1.16c0-.682-.542-1.16-1.153-1.16-.61 0-1.152.546-1.152 1.16Zm-.27 3.547c0 .682.542 1.16 1.152 1.16.61 0 1.153-.546 1.153-1.16 0-.682-.542-1.16-1.153-1.16-.61 0-1.153.478-1.153 1.16Zm3.187-.068c0 .682.542 1.16 1.153 1.16.678 0 1.152-.546 1.152-1.16 0-.614-.542-1.16-1.152-1.16-.679 0-1.153.478-1.153 1.16Zm-6.375.068c0 .682.542 1.16 1.153 1.16.678 0 1.153-.546 1.153-1.16 0-.614-.543-1.16-1.153-1.16-.61-.068-1.153.478-1.153 1.16Zm-3.255.068c0 .682.542 1.16 1.152 1.16.679 0 1.153-.546 1.153-1.16 0-.682-.542-1.16-1.153-1.16-.61-.068-1.152.478-1.152 1.16Zm-1.492 3.206c0 .682.542 1.16 1.152 1.16.679 0 1.153-.546 1.153-1.16 0-.682-.542-1.16-1.153-1.16-.61 0-1.152.546-1.152 1.16Zm3.594 0c0 .682.542 1.16 1.153 1.16.678 0 1.153-.546 1.153-1.16 0-.682-.543-1.16-1.153-1.16s-1.153.546-1.153 1.16Zm3.39 0c0 .682.543 1.16 1.154 1.16.678 0 1.153-.546 1.153-1.16 0-.682-.543-1.16-1.153-1.16s-1.153.546-1.153 1.16Zm3.324 0c0 .682.542 1.16 1.153 1.16.678 0 1.153-.546 1.153-1.16 0-.682-.543-1.16-1.153-1.16-.678 0-1.153.546-1.153 1.16Zm-1.356 3.206c0 .682.542 1.16 1.152 1.16.679 0 1.153-.546 1.153-1.16 0-.682-.542-1.16-1.153-1.16-.61-.068-1.152.478-1.152 1.16Zm-3.527-.068c0 .682.543 1.16 1.153 1.16.678 0 1.153-.546 1.153-1.16 0-.614-.543-1.16-1.153-1.16-.61-.068-1.153.478-1.153 1.16Zm-3.73-.136c0 .682.543 1.16 1.153 1.16.678 0 1.153-.547 1.153-1.16 0-.683-.543-1.16-1.153-1.16s-1.153.477-1.153 1.16Zm-4.001-.273c0 .682.542 1.16 1.153 1.16.61 0 1.153-.546 1.153-1.16 0-.682-.543-1.16-1.153-1.16s-1.153.478-1.153 1.16Zm-1.56-2.865c0 .682.542 1.16 1.153 1.16.61 0 1.153-.546 1.153-1.16 0-.614-.543-1.16-1.153-1.16s-1.153.546-1.153 1.16Zm-3.052 2.046c0 .682.543 1.16 1.153 1.16.678 0 1.153-.546 1.153-1.16 0-.682-.543-1.16-1.153-1.16s-1.153.478-1.153 1.16Zm-1.763 3.752c0 .682.542 1.16 1.153 1.16.678 0 1.153-.546 1.153-1.16 0-.682-.543-1.16-1.153-1.16-.678-.068-1.153.478-1.153 1.16Zm3.39-1.023c0 .682.543 1.16 1.154 1.16.678 0 1.153-.546 1.153-1.16 0-.682-.543-1.16-1.153-1.16s-1.153.478-1.153 1.16Zm1.56 2.728c0 .682.543 1.16 1.153 1.16.679 0 1.153-.546 1.153-1.16 0-.682-.542-1.16-1.153-1.16-.61-.068-1.152.478-1.152 1.16Zm2.985-1.91c0 .682.542 1.16 1.152 1.16.679 0 1.153-.546 1.153-1.16 0-.682-.542-1.16-1.153-1.16-.61 0-1.152.546-1.152 1.16Zm1.56 2.797c0 .682.542 1.16 1.152 1.16.61 0 1.153-.546 1.153-1.16 0-.682-.542-1.16-1.153-1.16-.61 0-1.153.478-1.153 1.16Zm2.509-2.388c0 .683.542 1.16 1.153 1.16.61 0 1.152-.546 1.152-1.16 0-.682-.542-1.16-1.152-1.16-.61 0-1.153.547-1.153 1.16Zm3.865.273c0 .682.543 1.16 1.153 1.16s1.153-.546 1.153-1.16c0-.682-.542-1.16-1.153-1.16-.61 0-1.153.478-1.153 1.16Zm-.068 5.798c0 .682.543 1.16 1.153 1.16.679 0 1.153-.546 1.153-1.16 0-.682-.542-1.16-1.153-1.16-.61 0-1.153.478-1.153 1.16Zm-4.747-.955c0 .683.543 1.16 1.153 1.16.678 0 1.153-.546 1.153-1.16 0-.614-.543-1.16-1.153-1.16-.678-.067-1.153.478-1.153 1.16Zm-2.916 1.774c0 .682.543 1.16 1.153 1.16.678 0 1.153-.546 1.153-1.16 0-.682-.543-1.16-1.153-1.16-.678 0-1.153.546-1.153 1.16Zm-1.628-2.729c0 .683.543 1.16 1.153 1.16.678 0 1.153-.546 1.153-1.16 0-.682-.542-1.16-1.153-1.16-.61 0-1.153.547-1.153 1.16Zm-3.187 1.296c0 .683.542 1.16 1.153 1.16.61 0 1.153-.546 1.153-1.16 0-.613-.543-1.16-1.153-1.16s-1.153.478-1.153 1.16Zm-1.628-2.796c0 .682.543 1.16 1.153 1.16s1.153-.546 1.153-1.16c0-.614-.542-1.16-1.153-1.16-.61 0-1.153.478-1.153 1.16Zm3.256 5.593c0 .682.542 1.16 1.152 1.16.61 0 1.153-.546 1.153-1.16 0-.682-.542-1.16-1.153-1.16-.61 0-1.152.478-1.152 1.16Zm-3.324.75c0 .683.543 1.16 1.153 1.16s1.153-.546 1.153-1.16c0-.613-.542-1.16-1.153-1.16-.61 0-1.153.547-1.153 1.16Zm-1.695-2.933c0 .682.543 1.16 1.153 1.16s1.153-.546 1.153-1.16c0-.682-.543-1.16-1.153-1.16s-1.153.478-1.153 1.16Zm6.917-15.074c0 .682.543 1.16 1.153 1.16.679 0 1.153-.547 1.153-1.16 0-.683-.542-1.16-1.153-1.16-.61-.068-1.153.477-1.153 1.16Zm6.918-3.684c0 .682.542 1.16 1.153 1.16.61 0 1.153-.546 1.153-1.16 0-.682-.543-1.16-1.153-1.16s-1.153.546-1.153 1.16Zm-3.12 0c0 .682.543 1.16 1.153 1.16s1.153-.546 1.153-1.16c0-.682-.542-1.16-1.153-1.16-.61 0-1.153.546-1.153 1.16Zm-3.12 0c0 .682.543 1.16 1.154 1.16.61 0 1.152-.546 1.152-1.16 0-.682-.542-1.16-1.152-1.16-.61 0-1.153.546-1.153 1.16Zm-31.128 0c0 .682.543 1.16 1.153 1.16.678 0 1.153-.546 1.153-1.16 0-.682-.543-1.16-1.153-1.16s-1.153.546-1.153 1.16Zm3.12 0c0 .682.542 1.16 1.153 1.16.678 0 1.153-.546 1.153-1.16 0-.682-.543-1.16-1.153-1.16s-1.153.546-1.153 1.16Zm1.492 2.32c-.678 0-1.153.545-1.153 1.159 0 .682.542 1.16 1.153 1.16.678 0 1.153-.546 1.153-1.16 0-.614-.543-1.16-1.153-1.16Zm-5.29 2.523c-.678 0-1.153.546-1.153 1.16 0 .682.543 1.16 1.153 1.16.678 0 1.153-.546 1.153-1.16.068-.614-.475-1.16-1.153-1.16Zm8.477-2.524c-.678 0-1.153.546-1.153 1.16 0 .614.543 1.16 1.153 1.16.678 0 1.153-.546 1.153-1.16 0-.614-.542-1.16-1.153-1.16Zm3.188.068c-.678 0-1.153.546-1.153 1.16 0 .682.542 1.16 1.153 1.16.61 0 1.153-.546 1.153-1.16.067-.614-.475-1.16-1.153-1.16Zm1.492 3.275c-.678 0-1.153.545-1.153 1.16 0 .681.542 1.159 1.153 1.159.61 0 1.153-.546 1.153-1.16.067-.614-.475-1.16-1.153-1.16Zm-3.527 0c-.678 0-1.153.545-1.153 1.16 0 .681.543 1.159 1.153 1.159s1.153-.546 1.153-1.16c0-.614-.542-1.16-1.153-1.16Zm-3.39 0c-.679 0-1.154.545-1.154 1.16 0 .681.543 1.159 1.153 1.159.678 0 1.153-.546 1.153-1.16 0-.614-.542-1.16-1.153-1.16Zm-4.612 10.095c-.679 0-1.153.546-1.153 1.16 0 .682.542 1.16 1.153 1.16.678 0 1.153-.546 1.153-1.16.067-.614-.475-1.16-1.153-1.16Zm2.577-6.958c-.678 0-1.153.546-1.153 1.16 0 .682.542 1.16 1.153 1.16.678 0 1.153-.546 1.153-1.16.067-.614-.475-1.16-1.153-1.16Zm3.526-.068c-.678 0-1.153.546-1.153 1.16 0 .614.543 1.16 1.153 1.16s1.153-.546 1.153-1.16c0-.614-.475-1.16-1.153-1.16Zm3.73-.068c-.678 0-1.153.546-1.153 1.16 0 .682.543 1.16 1.153 1.16.678 0 1.153-.547 1.153-1.16.068-.683-.475-1.16-1.153-1.16Zm4.07-.341c-.679 0-1.154.546-1.154 1.16 0 .682.543 1.16 1.153 1.16s1.153-.547 1.153-1.16c0-.614-.542-1.16-1.153-1.16Zm1.491-2.797c-.678 0-1.153.546-1.153 1.16 0 .614.543 1.16 1.153 1.16.679 0 1.153-.546 1.153-1.16 0-.614-.474-1.16-1.153-1.16Zm3.052 2.047c-.678 0-1.153.545-1.153 1.16 0 .681.543 1.159 1.153 1.159.678 0 1.153-.546 1.153-1.16.068-.682-.475-1.16-1.153-1.16Zm3.594.682c-.678 0-1.152.545-1.152 1.16 0 .681.542 1.159 1.152 1.159.61 0 1.153-.546 1.153-1.16 0-.614-.474-1.16-1.153-1.16Zm-1.763 3.001c-.678 0-1.153.546-1.153 1.16 0 .682.543 1.16 1.153 1.16.678 0 1.153-.546 1.153-1.16 0-.614-.542-1.16-1.153-1.16Zm-3.39-.955c-.679 0-1.154.546-1.154 1.16 0 .682.543 1.16 1.153 1.16.679 0 1.153-.546 1.153-1.16 0-.682-.542-1.16-1.153-1.16Zm-1.628 2.66c-.678 0-1.153.546-1.153 1.16 0 .682.542 1.16 1.153 1.16.678 0 1.153-.546 1.153-1.16.067-.614-.475-1.16-1.153-1.16Zm-2.916-1.841c-.679 0-1.153.545-1.153 1.16 0 .681.542 1.159 1.153 1.159.678 0 1.152-.546 1.152-1.16 0-.614-.542-1.16-1.152-1.16Zm-1.56 2.728c-.678 0-1.153.546-1.153 1.16 0 .682.542 1.16 1.153 1.16.678 0 1.153-.546 1.153-1.16 0-.614-.543-1.16-1.153-1.16Zm-2.577-2.32c-.679 0-1.153.547-1.153 1.16 0 .683.542 1.16 1.153 1.16.678 0 1.153-.546 1.153-1.16.067-.613-.475-1.16-1.153-1.16Zm-3.798.206c-.678 0-1.153.545-1.153 1.16 0 .681.542 1.159 1.153 1.159.678 0 1.153-.546 1.153-1.16 0-.614-.543-1.16-1.153-1.16Zm.339 5.115c-.678 0-1.153.546-1.153 1.16 0 .614.543 1.16 1.153 1.16.678 0 1.153-.546 1.153-1.16 0-.614-.475-1.16-1.153-1.16Zm4.476-.272c-.678 0-1.153.545-1.153 1.16 0 .613.543 1.159 1.153 1.159.678 0 1.153-.546 1.153-1.16 0-.614-.475-1.16-1.153-1.16Zm2.916 1.841c-.678 0-1.153.546-1.153 1.16 0 .682.543 1.16 1.153 1.16.678 0 1.153-.546 1.153-1.16 0-.614-.475-1.16-1.153-1.16Zm1.56-2.728c-.678 0-1.153.546-1.153 1.16 0 .682.543 1.159 1.153 1.159.678 0 1.153-.546 1.153-1.16.068-.613-.475-1.16-1.153-1.16Zm3.255 1.228c-.678 0-1.153.545-1.153 1.16 0 .613.543 1.159 1.153 1.159.678 0 1.153-.546 1.153-1.16 0-.614-.542-1.16-1.153-1.16Zm1.628-2.797c-.678 0-1.153.546-1.153 1.16 0 .613.542 1.16 1.153 1.16.678 0 1.153-.547 1.153-1.16 0-.614-.543-1.16-1.153-1.16Zm3.458.41c-.678 0-1.152.545-1.152 1.159 0 .682.542 1.16 1.152 1.16.61 0 1.153-.546 1.153-1.16 0-.614-.474-1.16-1.153-1.16Zm0 6.275c-.678 0-1.152.545-1.152 1.16 0 .681.542 1.159 1.152 1.159.61 0 1.153-.546 1.153-1.16 0-.682-.474-1.16-1.153-1.16Zm-6.713-1.092c-.679 0-1.153.546-1.153 1.16 0 .682.542 1.16 1.153 1.16.678 0 1.152-.546 1.152-1.16 0-.614-.542-1.16-1.152-1.16Zm3.323.819c-.679 0-1.153.546-1.153 1.16 0 .613.542 1.16 1.153 1.16.678 0 1.152-.547 1.152-1.16 0-.614-.542-1.16-1.152-1.16Zm1.695-2.933c-.678 0-1.153.545-1.153 1.16 0 .681.543 1.159 1.153 1.159.678 0 1.153-.546 1.153-1.16 0-.682-.543-1.16-1.153-1.16Zm-6.917-15.143c-.679 0-1.153.545-1.153 1.16 0 .681.542 1.159 1.153 1.159.61 0 1.153-.546 1.153-1.16 0-.614-.543-1.16-1.153-1.16Zm-8.139-2.456c0 .682.543 1.16 1.153 1.16.679 0 1.153-.546 1.153-1.16 0-.682-.542-1.16-1.153-1.16-.61 0-1.153.546-1.153 1.16Zm3.12 0c0 .682.543 1.16 1.153 1.16.678 0 1.153-.546 1.153-1.16 0-.682-.543-1.16-1.153-1.16s-1.153.546-1.153 1.16Zm3.12 0c0 .682.542 1.16 1.153 1.16.678 0 1.153-.546 1.153-1.16 0-.682-.543-1.16-1.153-1.16-.679 0-1.153.546-1.153 1.16ZM63.549 4.774c0-.682-.543-1.16-1.153-1.16-.679 0-1.153.546-1.153 1.16 0 .682.542 1.16 1.153 1.16.61.067 1.153-.478 1.153-1.16Zm-6.714 4.57c0-.682-.543-1.16-1.153-1.16s-1.153.546-1.153 1.16c0 .682.542 1.16 1.153 1.16.61 0 1.153-.478 1.153-1.16Zm7.46 3.41c0-.682-.543-1.16-1.153-1.16-.679 0-1.153.547-1.153 1.16 0 .683.542 1.16 1.153 1.16.61.068 1.153-.477 1.153-1.16Zm0 3.275c0-.683-.543-1.16-1.153-1.16-.679 0-1.153.546-1.153 1.16 0 .682.542 1.16 1.153 1.16.61.067 1.153-.478 1.153-1.16Zm3.255-6.48c0-.683-.543-1.16-1.153-1.16-.678 0-1.153.546-1.153 1.16 0 .613.543 1.16 1.153 1.16s1.153-.478 1.153-1.16Zm0 3.274c0-.682-.543-1.16-1.153-1.16-.678 0-1.153.546-1.153 1.16 0 .614.543 1.16 1.153 1.16s1.153-.546 1.153-1.16Zm0 3.206c0-.683-.543-1.16-1.153-1.16-.678 0-1.153.546-1.153 1.16 0 .682.543 1.16 1.153 1.16.61.067 1.153-.478 1.153-1.16Zm3.255-6.48c0-.683-.542-1.16-1.153-1.16-.61 0-1.153.546-1.153 1.16 0 .613.543 1.16 1.153 1.16s1.153-.478 1.153-1.16Zm0 3.274c0-.682-.542-1.16-1.153-1.16-.61 0-1.153.546-1.153 1.16 0 .614.543 1.16 1.153 1.16s1.153-.546 1.153-1.16Zm0 3.206c0-.683-.542-1.16-1.153-1.16-.61 0-1.153.546-1.153 1.16 0 .682.543 1.16 1.153 1.16s1.153-.478 1.153-1.16Zm0 3.274c0-.682-.542-1.16-1.153-1.16-.61 0-1.153.546-1.153 1.16 0 .614.543 1.16 1.153 1.16s1.153-.478 1.153-1.16Zm0 3.274c0-.682-.542-1.16-1.153-1.16-.61 0-1.153.546-1.153 1.16 0 .682.543 1.16 1.153 1.16s1.153-.478 1.153-1.16Zm0 3.274c0-.682-.542-1.16-1.153-1.16-.61 0-1.153.546-1.153 1.16 0 .614.543 1.16 1.153 1.16s1.153-.546 1.153-1.16Zm0 3.274c0-.682-.542-1.16-1.153-1.16-.61 0-1.153.546-1.153 1.16 0 .682.543 1.16 1.153 1.16s1.153-.546 1.153-1.16Zm0 3.206c0-.682-.542-1.16-1.153-1.16-.61 0-1.153.546-1.153 1.16 0 .614.543 1.16 1.153 1.16s1.153-.478 1.153-1.16Zm0 3.274c0-.682-.542-1.16-1.153-1.16-.61 0-1.153.547-1.153 1.16 0 .683.543 1.16 1.153 1.16s1.153-.477 1.153-1.16Zm0 3.275c0-.683-.542-1.16-1.153-1.16-.61 0-1.153.546-1.153 1.16 0 .613.543 1.16 1.153 1.16s1.153-.478 1.153-1.16Zm0 3.274c0-.682-.542-1.16-1.153-1.16-.61 0-1.153.546-1.153 1.16 0 .682.543 1.16 1.153 1.16s1.153-.546 1.153-1.16Zm0 3.274c0-.682-.542-1.16-1.153-1.16-.61 0-1.153.546-1.153 1.16 0 .614.543 1.16 1.153 1.16s1.153-.546 1.153-1.16Zm0 3.206c0-.682-.542-1.16-1.153-1.16-.61 0-1.153.546-1.153 1.16 0 .682.543 1.16 1.153 1.16s1.153-.478 1.153-1.16ZM74.06 9.548c0-.682-.542-1.16-1.153-1.16-.678 0-1.153.547-1.153 1.16 0 .614.543 1.16 1.153 1.16.679 0 1.153-.477 1.153-1.16Zm0 3.275c0-.682-.542-1.16-1.153-1.16-.678 0-1.153.546-1.153 1.16 0 .614.543 1.16 1.153 1.16.679 0 1.153-.546 1.153-1.16Zm0 3.206c0-.683-.542-1.16-1.153-1.16-.678 0-1.153.546-1.153 1.16 0 .682.543 1.16 1.153 1.16.679.067 1.153-.478 1.153-1.16Zm0 3.274c0-.682-.542-1.16-1.153-1.16-.678 0-1.153.546-1.153 1.16 0 .614.543 1.16 1.153 1.16.679.068 1.153-.478 1.153-1.16Zm0 3.274c0-.682-.542-1.16-1.153-1.16-.678 0-1.153.546-1.153 1.16 0 .682.543 1.16 1.153 1.16.679.068 1.153-.478 1.153-1.16Zm0 3.274c0-.682-.542-1.16-1.153-1.16-.678 0-1.153.546-1.153 1.16 0 .614.543 1.16 1.153 1.16.679 0 1.153-.546 1.153-1.16Zm0 3.274c0-.682-.542-1.16-1.153-1.16-.678 0-1.153.546-1.153 1.16 0 .682.543 1.16 1.153 1.16.679 0 1.153-.546 1.153-1.16Zm0 3.206c0-.682-.542-1.16-1.153-1.16-.678 0-1.153.546-1.153 1.16 0 .614.543 1.16 1.153 1.16.679.068 1.153-.478 1.153-1.16Zm0 3.274c0-.682-.542-1.16-1.153-1.16-.678 0-1.153.547-1.153 1.16 0 .683.543 1.16 1.153 1.16.679.068 1.153-.477 1.153-1.16Zm0 3.275c0-.683-.542-1.16-1.153-1.16-.678 0-1.153.546-1.153 1.16 0 .613.543 1.16 1.153 1.16.679 0 1.153-.478 1.153-1.16Zm0 3.274c0-.682-.542-1.16-1.153-1.16-.678 0-1.153.546-1.153 1.16 0 .682.543 1.16 1.153 1.16.679 0 1.153-.546 1.153-1.16Zm0 3.274c0-.682-.542-1.16-1.153-1.16-.678 0-1.153.546-1.153 1.16 0 .614.543 1.16 1.153 1.16.679 0 1.153-.546 1.153-1.16Zm0 3.206c0-.682-.542-1.16-1.153-1.16-.678 0-1.153.546-1.153 1.16 0 .682.543 1.16 1.153 1.16.679.068 1.153-.478 1.153-1.16Zm3.323-39.086c0-.682-.542-1.16-1.153-1.16-.678 0-1.152.547-1.152 1.16 0 .683.542 1.16 1.152 1.16.61 0 1.153-.546 1.153-1.16Zm0 3.206c0-.682-.542-1.16-1.153-1.16-.678 0-1.152.547-1.152 1.16 0 .683.542 1.16 1.152 1.16.61.068 1.153-.477 1.153-1.16Zm0 3.275c0-.683-.542-1.16-1.153-1.16-.678 0-1.152.546-1.152 1.16 0 .682.542 1.16 1.152 1.16.61.067 1.153-.478 1.153-1.16Zm0 3.274c0-.682-.542-1.16-1.153-1.16-.678 0-1.152.546-1.152 1.16 0 .682.542 1.16 1.152 1.16.61 0 1.153-.478 1.153-1.16Zm0 3.274c0-.682-.542-1.16-1.153-1.16-.678 0-1.152.546-1.152 1.16 0 .682.542 1.16 1.152 1.16.61 0 1.153-.546 1.153-1.16Zm0 3.274c0-.682-.542-1.16-1.153-1.16-.678 0-1.152.546-1.152 1.16 0 .682.542 1.16 1.152 1.16.61 0 1.153-.546 1.153-1.16Zm0 3.206c0-.682-.542-1.16-1.153-1.16-.678 0-1.152.546-1.152 1.16 0 .682.542 1.16 1.152 1.16.61.068 1.153-.478 1.153-1.16Zm0 3.274c0-.682-.542-1.16-1.153-1.16-.678 0-1.152.546-1.152 1.16 0 .682.542 1.16 1.152 1.16.61.068 1.153-.478 1.153-1.16Zm0 3.274c0-.682-.542-1.16-1.153-1.16-.678 0-1.152.547-1.152 1.16 0 .683.542 1.16 1.152 1.16.61 0 1.153-.477 1.153-1.16Zm0 3.275c0-.683-.542-1.16-1.153-1.16-.678 0-1.152.546-1.152 1.16 0 .682.542 1.16 1.152 1.16.61 0 1.153-.547 1.153-1.16Zm0 3.206c0-.683-.542-1.16-1.153-1.16-.678 0-1.152.546-1.152 1.16 0 .682.542 1.16 1.152 1.16.61.067 1.153-.478 1.153-1.16Zm0 3.274c0-.682-.542-1.16-1.153-1.16-.678 0-1.152.546-1.152 1.16 0 .682.542 1.16 1.152 1.16.61.068 1.153-.478 1.153-1.16Zm3.866 6.616c0-.682-.543-1.16-1.153-1.16-.678 0-1.153.546-1.153 1.16 0 .682.543 1.16 1.153 1.16s1.153-.546 1.153-1.16Zm3.39-4.843c0-.682-.542-1.16-1.152-1.16-.678 0-1.153.546-1.153 1.16 0 .614.543 1.16 1.153 1.16s1.153-.478 1.153-1.16Z" fill="#FFF"/>
  </g>
</svg>
