<svg width="238" height="53" xmlns="http://www.w3.org/2000/svg">
  <g fill-rule="nonzero" fill="none">
    <path d="M46.641 28.914c0 12.766-10.32 23.087-23.086 23.087C10.789 52 .468 41.68.468 28.914.468 16.15 10.79 5.828 23.555 5.828c12.765 0 23.086 10.32 23.086 23.086" fill="#0060AF"/>
    <path d="M15.407 28.914c0-.611-.068-1.154-.272-1.697-.204-.476-.475-.951-.883-1.358-.34-.408-.815-.68-1.29-.883a4.448 4.448 0 0 0-1.697-.34h-1.97c-.135 0-.271.068-.407.136-.136.136-.136.272-.136.408v7.265c0 .136.068.272.136.407.136.136.272.136.407.136h1.97c.61 0 1.154-.136 1.697-.34.475-.203.95-.475 1.29-.882.34-.407.68-.815.883-1.358.136-.34.272-.883.272-1.494m-1.087 0c0 .611-.136 1.154-.407 1.63-.272.475-.611.882-1.087 1.154-.475.272-1.018.407-1.63.407H9.84v-6.45h1.358c.61 0 1.154.136 1.63.407.475.272.814.68 1.086 1.155.271.475.407 1.086.407 1.697m16.908 3.395-3.056-7.265c-.068-.272-.272-.408-.543-.408-.272 0-.408.136-.543.408l-2.988 7.197c-.068.204-.068.408 0 .543.136.204.272.272.475.272.068 0 .204 0 .272-.068.068-.068.204-.136.204-.271l.61-1.494h3.871l.611 1.494c.068.135.136.203.204.271.068.068.204.068.34.068.203 0 .339-.068.475-.272.068-.067.135-.271.068-.475M29.19 30.34h-3.124l1.562-3.802 1.562 3.802Zm-6.044 1.97-3.055-7.266c-.068-.272-.272-.408-.543-.408-.272 0-.408.136-.544.408l-2.987 7.197c-.068.204-.068.408 0 .543.135.204.271.272.475.272.068 0 .204 0 .272-.068.067-.068.203-.136.203-.271l.611-1.494h3.87l.612 1.494c.068.135.136.203.204.271.067.068.203.068.34.068.203 0 .339-.068.474-.272.136-.067.136-.271.068-.475m-1.969-1.969h-3.123l1.561-3.802 1.562 3.802Zm17.926-1.426c0-.611-.068-1.154-.272-1.697-.203-.476-.475-.951-.882-1.358-.34-.408-.815-.68-1.29-.883a4.448 4.448 0 0 0-1.698-.34h-1.969c-.136 0-.272.068-.407.136-.136.136-.136.272-.136.408v7.265c0 .136.068.272.136.407.135.136.271.136.407.136h1.97c.61 0 1.153-.136 1.697-.34.475-.203.95-.475 1.29-.882.34-.407.679-.815.882-1.358.204-.34.272-.883.272-1.494m-1.018 0c0 .611-.136 1.154-.408 1.63-.271.475-.61.882-1.086 1.154-.476.272-1.019.407-1.63.407h-1.358v-6.45h1.358c.611 0 1.154.136 1.63.407.475.272.815.68 1.086 1.155.272.475.408 1.086.408 1.697" fill="#FFF"/>
    <path d="M191.067 13.704c.136.136.204.34.204.543v7.402c0 .679-.136 1.29-.476 1.833-.271.543-.746.95-1.222 1.222-.543.272-1.154.476-1.833.476-.68 0-1.29-.136-1.833-.476-.544-.271-.951-.747-1.223-1.222-.271-.543-.475-1.154-.475-1.833 0-.204.068-.408.204-.544a.771.771 0 0 1 .543-.203c.204 0 .407.068.543.203.136.136.204.34.204.544 0 .407.068.814.271 1.154.204.34.408.611.68.747.271.204.678.272 1.018.272.407 0 .747-.068 1.019-.272.271-.204.543-.407.746-.747.204-.34.272-.679.272-1.154v-7.402c0-.203.068-.407.204-.543a.771.771 0 0 1 .543-.203c.272 0 .475.067.611.203Zm12.086 10.253c.136.272.068.544-.067.747a.713.713 0 0 1-.612.34c-.135 0-.271-.068-.407-.136-.136-.068-.204-.204-.272-.34l-.814-2.037h-5.297l-.814 2.037a1.481 1.481 0 0 1-.272.34c-.136.068-.272.136-.407.136a.713.713 0 0 1-.612-.34c-.135-.203-.135-.475-.067-.747l4.141-9.913c.136-.34.408-.543.747-.543.34 0 .612.203.747.543l4.006 9.913Zm-2.783-2.716-2.105-5.228-2.173 5.228h4.278Zm14.395-7.74a.771.771 0 0 0-.544.203.771.771 0 0 0-.203.543v4.21h-6.858v-4.21a.771.771 0 0 0-.204-.543.771.771 0 0 0-.543-.203.771.771 0 0 0-.543.203.771.771 0 0 0-.204.543v10.05c0 .204.068.407.204.543.135.136.339.204.543.204a.771.771 0 0 0 .543-.204.771.771 0 0 0 .204-.543v-4.414h6.858v4.414c0 .204.068.407.203.543.136.136.34.204.544.204a.771.771 0 0 0 .543-.204.771.771 0 0 0 .204-.543v-9.982a.771.771 0 0 0-.204-.543c-.136-.204-.272-.271-.543-.271Zm12.018 10.388c.204.272.204.544.068.815-.136.272-.34.408-.679.408-.136 0-.272 0-.407-.068a.53.53 0 0 1-.272-.272l-2.512-4.074h-2.173v3.667a.771.771 0 0 1-.204.543.771.771 0 0 1-.543.204.771.771 0 0 1-.543-.204.771.771 0 0 1-.204-.543v-9.982c0-.203.068-.407.204-.543a.771.771 0 0 1 .543-.204h2.648c.747 0 1.426.136 1.97.476.542.34 1.018.747 1.357 1.29.34.543.476 1.154.476 1.901 0 .679-.136 1.29-.476 1.765-.34.544-.747.951-1.358 1.223-.068 0-.136.068-.136.068l2.241 3.53Zm-4.074-4.685c.475 0 .883-.068 1.222-.271.34-.204.611-.408.815-.747.204-.34.272-.68.272-1.087 0-.407-.068-.815-.272-1.154a2.34 2.34 0 0 0-.815-.815c-.34-.204-.747-.271-1.222-.271h-1.901v4.277h1.901v.068Zm14.26 4.414h-5.908V19.95h4.21a.771.771 0 0 0 .543-.204c.136-.135.204-.271.204-.543 0-.271-.068-.407-.204-.475a.771.771 0 0 0-.543-.204h-4.21v-3.599h5.907a.771.771 0 0 0 .544-.203.616.616 0 0 0 .203-.476.771.771 0 0 0-.203-.543.771.771 0 0 0-.544-.203h-6.654a.771.771 0 0 0-.543.203.771.771 0 0 0-.204.543v10.05c0 .204.068.407.204.543.136.136.34.204.543.204h6.654a.771.771 0 0 0 .544-.204.771.771 0 0 0 .203-.543c0-.204-.068-.408-.203-.475a.771.771 0 0 0-.544-.204Z" fill="#00325F"/>
    <path d="M194.53 32.852a.616.616 0 0 1 .204.476c0 .203 0 .34-.136.543l-4.006 6.111v3.463a.771.771 0 0 1-.204.543.771.771 0 0 1-.543.204.771.771 0 0 1-.543-.204.771.771 0 0 1-.204-.543v-3.463l-3.938-6.111c-.136-.204-.204-.408-.136-.611 0-.204.136-.34.271-.476a.734.734 0 0 1 .476-.203c.136 0 .271.068.407.136.136.067.204.203.272.34l3.463 5.5 3.53-5.569c.069-.136.204-.204.272-.271.136-.068.272-.068.408-.068.135.068.34.135.407.203Zm9.642 1.29a.771.771 0 0 0 .543-.203.616.616 0 0 0 .204-.476.771.771 0 0 0-.204-.543.771.771 0 0 0-.543-.203h-6.654a.771.771 0 0 0-.544.203.771.771 0 0 0-.203.543v9.982c0 .204.068.407.203.543.136.136.34.204.544.204h6.654a.771.771 0 0 0 .543-.204.771.771 0 0 0 .204-.543c0-.204-.068-.407-.204-.475a.771.771 0 0 0-.543-.204h-5.907v-3.667h4.21a.771.771 0 0 0 .543-.203c.135-.136.203-.272.203-.544a.771.771 0 0 0-.203-.543.771.771 0 0 0-.544-.204h-4.21v-3.598h5.908v.136Zm12.562 9.031c.136.272.068.544-.068.747a.713.713 0 0 1-.611.34c-.136 0-.272-.068-.408-.136-.135-.068-.203-.204-.271-.34l-.815-2.037h-5.296l-.815 2.037a1.481 1.481 0 0 1-.272.34c-.136.068-.271.136-.407.136a.713.713 0 0 1-.611-.34c-.136-.203-.136-.475-.068-.747l4.142-9.913c.136-.34.407-.543.747-.543s.61.203.747.543l4.006 9.913Zm-2.716-2.716-2.105-5.228-2.173 5.228h4.278Zm12.833 2.58c.204.272.204.544.068.815-.136.272-.34.408-.68.408-.135 0-.27 0-.407-.068a.53.53 0 0 1-.271-.272l-2.512-4.074h-2.173v3.667a.771.771 0 0 1-.204.543.771.771 0 0 1-.543.204.771.771 0 0 1-.543-.204.771.771 0 0 1-.204-.543V33.53c0-.203.068-.407.204-.543a.771.771 0 0 1 .543-.204h2.648c.747 0 1.426.136 1.97.476.542.34 1.018.747 1.357 1.29.34.543.475 1.154.475 1.901 0 .68-.135 1.29-.475 1.766-.34.543-.747.95-1.358 1.222-.068 0-.136.068-.136.068l2.241 3.53Zm-4.074-4.685c.475 0 .883-.068 1.222-.271.34-.204.611-.408.815-.747.204-.34.272-.68.272-1.087 0-.407-.068-.814-.272-1.154a2.34 2.34 0 0 0-.815-.815c-.34-.203-.747-.271-1.222-.271h-1.901v4.277h1.9v.068Zm13.648.34c-.679-.611-1.562-.95-2.716-1.087-.747-.067-1.358-.203-1.765-.407-.408-.204-.68-.407-.815-.679a1.88 1.88 0 0 1-.204-.883c0-.61.272-1.018.747-1.29.475-.271 1.086-.407 1.833-.407.408 0 .747.068 1.087.204.34.135.543.271.815.475.203.204.407.407.543.747.136.203.271.34.475.407.204.068.407.068.611-.068.136-.136.272-.271.272-.475 0-.204 0-.407-.204-.611-.272-.408-.543-.747-.883-1.019-.34-.271-.747-.543-1.154-.679-.475-.136-.95-.271-1.562-.271-.747 0-1.493.135-2.105.34a3.445 3.445 0 0 0-1.493 1.018c-.34.475-.544 1.018-.544 1.63 0 .882.34 1.629 1.019 2.24.679.611 1.63.95 2.852 1.086.95.068 1.63.34 2.037.747.407.408.61.883.61 1.426 0 .408-.135.747-.339 1.019-.271.271-.543.475-.95.611a3.953 3.953 0 0 1-2.513 0c-.407-.136-.679-.272-.95-.475-.272-.204-.476-.408-.611-.68a.612.612 0 0 0-.408-.407c-.203-.068-.34-.136-.543-.068-.272.068-.407.136-.543.34-.136.204-.136.34 0 .543.204.475.475.883.95 1.222.408.34.951.611 1.494.815.544.204 1.155.272 1.834.272.543 0 1.018-.068 1.561-.204.476-.136.951-.34 1.358-.611.408-.272.68-.611.951-1.019.204-.407.34-.882.34-1.493-.136-.951-.476-1.698-1.087-2.31ZM122.894 26.605c.68 0 1.155-.543 1.155-1.154 0-.679-.544-1.154-1.155-1.154-.679 0-1.154.543-1.154 1.154 0 .611.543 1.154 1.154 1.154Zm3.192 0c.679 0 1.154-.543 1.154-1.154 0-.679-.543-1.154-1.154-1.154-.68 0-1.155.543-1.155 1.154 0 .611.476 1.154 1.155 1.154Zm-6.383-.067c.679 0 1.154-.544 1.154-1.155 0-.679-.543-1.154-1.154-1.154-.611 0-1.154.543-1.154 1.154 0 .68.475 1.155 1.154 1.155Zm-3.26 0c.68 0 1.155-.544 1.155-1.155 0-.679-.543-1.154-1.154-1.154-.68 0-1.155.543-1.155 1.154 0 .611.543 1.155 1.155 1.155Zm-1.425-3.26c.679 0 1.154-.543 1.154-1.154 0-.679-.543-1.154-1.154-1.154-.68 0-1.155.543-1.155 1.154-.068.611.476 1.154 1.155 1.154Zm3.53 0c.68 0 1.155-.543 1.155-1.154 0-.611-.543-1.154-1.154-1.154-.68 0-1.155.543-1.155 1.154 0 .611.476 1.154 1.155 1.154Zm3.396 0c.679 0 1.154-.543 1.154-1.154 0-.679-.543-1.154-1.154-1.154-.612 0-1.155.543-1.155 1.154 0 .611.543 1.154 1.155 1.154Zm3.327 0c.679 0 1.154-.543 1.154-1.154 0-.611-.543-1.154-1.154-1.154-.611 0-1.155.543-1.155 1.154 0 .611.476 1.154 1.155 1.154Zm-1.29-3.123c.679 0 1.154-.543 1.154-1.154 0-.612-.543-1.155-1.154-1.155-.611 0-1.155.543-1.155 1.155 0 .61.476 1.154 1.155 1.154Zm-3.6 0c.68 0 1.155-.543 1.155-1.154 0-.68-.543-1.155-1.154-1.155-.68 0-1.154.543-1.154 1.155 0 .679.543 1.154 1.154 1.154Zm-3.666.136c.68 0 1.155-.544 1.155-1.155 0-.679-.544-1.154-1.155-1.154-.61 0-1.154.543-1.154 1.154-.068.68.475 1.155 1.154 1.155Zm-4.074.34c.68 0 1.154-.544 1.154-1.155 0-.68-.543-1.154-1.154-1.154-.679 0-1.154.543-1.154 1.154 0 .611.543 1.154 1.154 1.154Zm-1.562 2.783c.68 0 1.155-.543 1.155-1.154 0-.68-.543-1.155-1.155-1.155-.679 0-1.154.544-1.154 1.155 0 .61.543 1.154 1.154 1.154Zm-2.987-2.037c.679 0 1.154-.543 1.154-1.154 0-.68-.543-1.155-1.154-1.155-.68 0-1.155.544-1.155 1.155-.067.679.476 1.154 1.155 1.154Zm-1.834-3.667c.68 0 1.155-.543 1.155-1.154 0-.679-.543-1.154-1.155-1.154-.61 0-1.154.543-1.154 1.154 0 .611.475 1.154 1.154 1.154Zm3.395.951c.68 0 1.155-.543 1.155-1.154 0-.68-.543-1.155-1.155-1.155-.61 0-1.154.544-1.154 1.155 0 .679.543 1.154 1.154 1.154Zm1.63-2.648c.68 0 1.154-.543 1.154-1.154 0-.68-.543-1.155-1.154-1.155-.679 0-1.154.543-1.154 1.155-.068.61.475 1.154 1.154 1.154Zm2.92 1.833c.679 0 1.154-.543 1.154-1.154 0-.611-.543-1.154-1.154-1.154-.611 0-1.154.543-1.154 1.154 0 .611.543 1.154 1.154 1.154Zm2.784-3.802c.679 0 1.154-.543 1.154-1.155 0-.61-.543-1.154-1.154-1.154-.68 0-1.155.543-1.155 1.154 0 .612.476 1.155 1.155 1.155Zm1.358 3.395c.679 0 1.154-.543 1.154-1.155 0-.61-.543-1.154-1.154-1.154-.68 0-1.154.543-1.154 1.154 0 .612.475 1.155 1.154 1.155Zm3.802-.204c.68 0 1.155-.543 1.155-1.154 0-.611-.544-1.155-1.155-1.155-.679 0-1.154.544-1.154 1.155 0 .61.543 1.154 1.154 1.154Zm2.716-8.216c.68 0 1.155-.543 1.155-1.154 0-.611-.476-1.222-1.155-1.222s-1.154.543-1.154 1.154c0 .61.475 1.222 1.154 1.222Zm-9.37.272c.679 0 1.154-.544 1.154-1.155 0-.679-.543-1.154-1.154-1.154-.611 0-1.154.543-1.154 1.154 0 .611.543 1.155 1.154 1.155Zm4.006-3.395c.68 0 1.154-.544 1.154-1.155 0-.679-.543-1.154-1.154-1.154-.679 0-1.154.543-1.154 1.154-.068.611.475 1.155 1.154 1.155Zm-6.654 7.4c.679 0 1.154-.542 1.154-1.153 0-.68-.543-1.155-1.154-1.155-.611 0-1.154.543-1.154 1.155-.068.61.475 1.154 1.154 1.154Zm-3.26-1.221c.68 0 1.155-.544 1.155-1.155 0-.679-.543-1.154-1.154-1.154-.68 0-1.155.543-1.155 1.154 0 .611.543 1.155 1.155 1.155Zm-1.629 2.784c.679 0 1.154-.544 1.154-1.155 0-.61-.543-1.154-1.154-1.154-.68 0-1.154.543-1.154 1.154 0 .611.475 1.155 1.154 1.155Zm3.26-5.568c.678 0 1.154-.544 1.154-1.155 0-.679-.544-1.154-1.155-1.154-.679 0-1.154.543-1.154 1.154 0 .611.543 1.155 1.154 1.155Zm-3.328-.815c.68 0 1.154-.543 1.154-1.154 0-.612-.543-1.155-1.154-1.155-.679 0-1.154.543-1.154 1.155 0 .61.543 1.154 1.154 1.154Zm-1.697 2.92c.679 0 1.154-.544 1.154-1.155 0-.679-.543-1.154-1.154-1.154-.68 0-1.155.543-1.155 1.154 0 .611.543 1.155 1.155 1.155Zm6.925 15.074c.68 0 1.155-.544 1.155-1.155 0-.61-.543-1.154-1.155-1.154-.679 0-1.154.543-1.154 1.154 0 .611.543 1.155 1.154 1.155Zm-25.87-1.087c0-.679-.543-1.154-1.154-1.154-.68 0-1.155.543-1.155 1.154 0 .68.544 1.155 1.155 1.155.61.067 1.154-.476 1.154-1.155Zm-3.191.068c0-.679-.543-1.154-1.155-1.154-.61 0-1.154.543-1.154 1.154 0 .68.543 1.154 1.154 1.154.612 0 1.155-.543 1.155-1.154Zm6.382-.068c0-.679-.543-1.154-1.154-1.154-.679 0-1.154.543-1.154 1.154 0 .68.543 1.155 1.154 1.155.611 0 1.154-.476 1.154-1.155Zm3.26-.068c0-.679-.544-1.154-1.155-1.154-.679 0-1.154.543-1.154 1.154 0 .68.543 1.155 1.154 1.155.611.068 1.155-.476 1.155-1.155Zm1.494-3.191c0-.679-.544-1.154-1.155-1.154-.679 0-1.154.543-1.154 1.154 0 .679.543 1.154 1.154 1.154.611 0 1.155-.543 1.155-1.154Zm-3.6-.068c0-.679-.542-1.154-1.154-1.154-.679 0-1.154.543-1.154 1.154 0 .611.543 1.154 1.154 1.154.612.068 1.155-.475 1.155-1.154Zm-3.394.068c0-.679-.544-1.154-1.155-1.154-.679 0-1.154.543-1.154 1.154 0 .679.543 1.154 1.154 1.154.611 0 1.155-.543 1.155-1.154Zm-3.327 0c0-.679-.544-1.154-1.155-1.154-.679 0-1.154.543-1.154 1.154 0 .611.543 1.154 1.154 1.154.611 0 1.155-.543 1.155-1.154Zm1.358-3.191c0-.68-.544-1.155-1.155-1.155-.679 0-1.154.544-1.154 1.155 0 .61.543 1.154 1.154 1.154.611.068 1.155-.475 1.155-1.154Zm3.53.068c0-.68-.543-1.155-1.154-1.155-.679 0-1.154.543-1.154 1.155 0 .679.543 1.154 1.154 1.154.611 0 1.154-.475 1.154-1.154Zm3.735.135c0-.679-.543-1.154-1.154-1.154-.68 0-1.155.543-1.155 1.154 0 .68.544 1.155 1.155 1.155.61 0 1.154-.476 1.154-1.155Zm4.006.272c0-.68-.543-1.154-1.154-1.154-.68 0-1.154.543-1.154 1.154 0 .679.543 1.154 1.154 1.154.611.068 1.154-.475 1.154-1.154Zm1.562 2.852c0-.68-.543-1.155-1.154-1.155-.68 0-1.155.544-1.155 1.155 0 .679.543 1.154 1.155 1.154.61 0 1.154-.543 1.154-1.154Zm3.055-2.037c0-.68-.543-1.155-1.154-1.155-.611 0-1.222.476-1.222 1.155s.543 1.154 1.154 1.154c.611 0 1.222-.475 1.222-1.154Zm2.377-1.901c-.679 0-1.154.543-1.154 1.154 0 .679.543 1.154 1.154 1.154.679 0 1.154-.543 1.154-1.154 0-.611-.475-1.154-1.154-1.154Zm-.611-1.834c0-.679-.543-1.154-1.154-1.154-.68 0-1.155.543-1.155 1.154 0 .68.543 1.155 1.155 1.155.61.067 1.154-.476 1.154-1.155Zm-3.395 1.019c0-.68-.543-1.155-1.155-1.155-.679 0-1.154.544-1.154 1.155 0 .679.543 1.154 1.154 1.154.612 0 1.155-.475 1.155-1.154Zm-1.562-2.716c0-.68-.543-1.155-1.154-1.155-.611 0-1.155.544-1.155 1.155 0 .679.544 1.154 1.155 1.154.61 0 1.154-.475 1.154-1.154Zm-2.988 1.9c0-.678-.543-1.153-1.154-1.153-.679 0-1.154.543-1.154 1.154 0 .611.543 1.154 1.154 1.154.611 0 1.154-.543 1.154-1.154Zm-1.561-2.783c0-.68-.544-1.154-1.155-1.154-.679 0-1.154.543-1.154 1.154 0 .679.543 1.154 1.154 1.154.611.068 1.155-.475 1.155-1.154Zm-2.513 2.309c0-.68-.543-1.155-1.154-1.155-.679 0-1.154.543-1.154 1.155 0 .61.543 1.154 1.154 1.154.611.068 1.154-.475 1.154-1.154Zm-3.87-.204c0-.68-.543-1.154-1.154-1.154-.68 0-1.155.543-1.155 1.154 0 .611.544 1.154 1.155 1.154.61.068 1.154-.475 1.154-1.154Zm.136-5.975c0-.68-.543-1.155-1.155-1.155-.679 0-1.154.543-1.154 1.155 0 .61.543 1.154 1.154 1.154.612 0 1.155-.543 1.155-1.154Zm4.685 1.154c0-.68-.543-1.154-1.154-1.154-.68 0-1.155.543-1.155 1.154 0 .611.544 1.154 1.155 1.154.61.068 1.154-.475 1.154-1.154Zm2.92-1.766c0-.679-.543-1.154-1.155-1.154-.61 0-1.154.543-1.154 1.154 0 .68.543 1.155 1.154 1.155.612 0 1.155-.543 1.155-1.155Zm1.561 2.649c0-.68-.543-1.155-1.154-1.155-.679 0-1.154.543-1.154 1.155 0 .679.543 1.154 1.154 1.154.68.068 1.154-.475 1.154-1.154Zm3.26-1.223c0-.679-.543-1.154-1.155-1.154-.679 0-1.154.543-1.154 1.154 0 .68.543 1.155 1.154 1.155.612.068 1.155-.476 1.155-1.155Zm1.63 2.784c0-.679-.544-1.154-1.155-1.154-.679 0-1.154.543-1.154 1.154 0 .611.543 1.155 1.154 1.155.611.068 1.154-.476 1.154-1.155Zm2.308-1.561c-.679 0-1.154.543-1.154 1.154 0 .611.543 1.154 1.154 1.154.679 0 1.154-.543 1.154-1.154 0-.611-.475-1.154-1.154-1.154Zm0-6.247c-.679 0-1.154.543-1.154 1.154 0 .679.543 1.154 1.154 1.154.679 0 1.154-.543 1.154-1.154 0-.611-.475-1.154-1.154-1.154Zm-5.568 2.24c0-.679-.543-1.154-1.154-1.154-.68 0-1.155.543-1.155 1.154 0 .68.544 1.155 1.155 1.155.61.068 1.154-.476 1.154-1.155Zm3.327-.746c0-.68-.543-1.155-1.154-1.155-.68 0-1.154.543-1.154 1.155 0 .61.543 1.154 1.154 1.154.611 0 1.154-.543 1.154-1.154Zm1.698 2.92c0-.68-.543-1.155-1.155-1.155-.679 0-1.154.543-1.154 1.154 0 .68.543 1.155 1.154 1.155.612 0 1.155-.544 1.155-1.155Zm-6.926 15.005c0-.679-.543-1.154-1.154-1.154-.68 0-1.155.543-1.155 1.154 0 .612.543 1.155 1.155 1.155.61.068 1.154-.476 1.154-1.155Zm28.111 3.6c0 .678.543 1.154 1.154 1.154.68 0 1.155-.544 1.155-1.155 0-.679-.544-1.154-1.155-1.154-.61 0-1.154.543-1.154 1.154Zm-3.123 0c0 .678.543 1.154 1.154 1.154.679 0 1.154-.544 1.154-1.155 0-.679-.543-1.154-1.154-1.154-.611 0-1.154.543-1.154 1.154Zm-.272 3.53c0 .68.543 1.154 1.154 1.154.68 0 1.155-.543 1.155-1.154 0-.679-.544-1.154-1.155-1.154-.61-.068-1.154.475-1.154 1.154Zm3.191-.068c0 .68.543 1.154 1.155 1.154.679 0 1.154-.543 1.154-1.154 0-.61-.543-1.154-1.154-1.154-.68 0-1.155.475-1.155 1.154Zm-6.382.068c0 .68.543 1.154 1.154 1.154.611 0 1.154-.543 1.154-1.154 0-.611-.543-1.154-1.154-1.154-.611 0-1.154.475-1.154 1.154Zm-3.26.068c0 .679.543 1.154 1.155 1.154.679 0 1.154-.543 1.154-1.154 0-.679-.543-1.154-1.154-1.154-.612-.068-1.155.475-1.155 1.154Zm-1.494 3.191c0 .68.544 1.155 1.155 1.155.679 0 1.154-.544 1.154-1.155 0-.679-.543-1.154-1.154-1.154-.611 0-1.155.543-1.155 1.154Zm3.6 0c0 .68.542 1.155 1.154 1.155.679 0 1.154-.544 1.154-1.155 0-.679-.543-1.154-1.154-1.154-.68 0-1.155.543-1.155 1.154Zm3.394 0c0 .68.543 1.155 1.155 1.155.61 0 1.154-.544 1.154-1.155 0-.679-.543-1.154-1.154-1.154-.612 0-1.155.543-1.155 1.154Zm6.655 2.852c0 .68.543 1.155 1.154 1.155.679 0 1.154-.544 1.154-1.155 0-.679-.543-1.154-1.154-1.154-.611 0-1.154.543-1.154 1.154Zm-4.686.34c0 .679.544 1.154 1.155 1.154.61 0 1.154-.543 1.154-1.154 0-.68-.543-1.155-1.154-1.155-.611 0-1.155.476-1.155 1.155Zm-3.53-.068c0 .679.543 1.154 1.154 1.154.679 0 1.154-.543 1.154-1.154 0-.611-.543-1.155-1.154-1.155-.611-.067-1.154.476-1.154 1.155Zm-3.735-.136c0 .679.543 1.154 1.154 1.154.611 0 1.155-.543 1.155-1.154 0-.679-.544-1.154-1.155-1.154-.61 0-1.154.475-1.154 1.154Zm-4.006-.272c0 .68.543 1.155 1.154 1.155.68 0 1.154-.544 1.154-1.155 0-.679-.543-1.154-1.154-1.154-.611-.068-1.154.475-1.154 1.154Zm-1.562-2.851c0 .679.543 1.154 1.154 1.154.68 0 1.155-.543 1.155-1.154 0-.612-.543-1.155-1.155-1.155-.61 0-1.154.543-1.154 1.155Zm-3.055 2.037c0 .679.543 1.154 1.154 1.154.679 0 1.154-.543 1.154-1.154 0-.68-.543-1.155-1.154-1.155-.611 0-1.154.476-1.154 1.155Zm-1.766 3.734c0 .68.543 1.154 1.154 1.154.612 0 1.155-.543 1.155-1.154 0-.679-.543-1.154-1.155-1.154-.61 0-1.154.475-1.154 1.154Zm3.395-1.018c0 .679.543 1.154 1.154 1.154.612 0 1.155-.543 1.155-1.154 0-.68-.543-1.155-1.155-1.155-.61 0-1.154.476-1.154 1.155Zm1.562 2.716c0 .679.543 1.154 1.154 1.154.68 0 1.155-.543 1.155-1.154 0-.68-.544-1.155-1.155-1.155-.61-.068-1.154.476-1.154 1.155Zm2.988-1.902c0 .68.543 1.155 1.154 1.155.611 0 1.154-.543 1.154-1.155 0-.679-.543-1.154-1.154-1.154-.611 0-1.154.543-1.154 1.154Zm1.561 2.784c0 .68.543 1.155 1.155 1.155.679 0 1.154-.544 1.154-1.155 0-.679-.543-1.154-1.154-1.154-.68-.068-1.155.475-1.155 1.154Zm2.513-2.376c0 .679.543 1.154 1.154 1.154.679 0 1.154-.543 1.154-1.154 0-.68-.543-1.154-1.154-1.154-.611 0-1.154.543-1.154 1.154Zm3.87.271c0 .68.543 1.155 1.154 1.155.68 0 1.155-.543 1.155-1.155 0-.679-.544-1.154-1.155-1.154-.61-.068-1.154.475-1.154 1.154Zm5.704 9.914c0 .679.543 1.154 1.154 1.154.611 0 1.154-.543 1.154-1.154 0-.679-.543-1.154-1.154-1.154-.611 0-1.154.475-1.154 1.154Zm-7.47-2.512c0 .679.544 1.154 1.155 1.154s1.154-.543 1.154-1.154c0-.611-.543-1.155-1.154-1.155-.611 0-1.154.544-1.154 1.155Zm-5.975-.815c0 .679.543 1.154 1.155 1.154.679 0 1.154-.543 1.154-1.154 0-.68-.543-1.154-1.154-1.154-.68 0-1.155.543-1.155 1.154Zm-1.63-2.716c0 .679.544 1.154 1.155 1.154s1.154-.543 1.154-1.154c0-.68-.543-1.155-1.154-1.155-.611 0-1.154.544-1.154 1.155Zm-3.19 1.29c0 .679.542 1.154 1.154 1.154.679 0 1.154-.543 1.154-1.154 0-.611-.543-1.154-1.154-1.154-.612-.068-1.155.475-1.155 1.154Zm-1.63-2.784c0 .679.543 1.154 1.154 1.154.679 0 1.154-.543 1.154-1.154 0-.611-.543-1.154-1.154-1.154-.68-.068-1.154.475-1.154 1.154Zm3.259 5.568c0 .679.543 1.154 1.154 1.154.68 0 1.155-.543 1.155-1.154 0-.68-.544-1.154-1.155-1.154-.61-.068-1.154.475-1.154 1.154Zm-3.327.747c0 .679.543 1.154 1.154 1.154.68 0 1.154-.543 1.154-1.154 0-.611-.543-1.155-1.154-1.155-.611 0-1.154.544-1.154 1.155Zm-1.698-2.92c0 .68.543 1.154 1.155 1.154.679 0 1.154-.543 1.154-1.154 0-.679-.543-1.154-1.154-1.154-.612 0-1.155.475-1.155 1.154Zm6.926-15.006c0 .679.543 1.154 1.154 1.154.68 0 1.155-.543 1.155-1.154 0-.68-.543-1.154-1.155-1.154-.61-.068-1.154.475-1.154 1.154Zm6.926-3.667c0 .68.543 1.155 1.154 1.155.68 0 1.155-.544 1.155-1.155 0-.679-.544-1.154-1.155-1.154-.61 0-1.154.543-1.154 1.154Zm-3.123 0c0 .68.543 1.155 1.154 1.155.679 0 1.154-.544 1.154-1.155 0-.679-.543-1.154-1.154-1.154-.611 0-1.154.543-1.154 1.154Zm-3.124 0c0 .68.543 1.155 1.154 1.155.68 0 1.155-.544 1.155-1.155 0-.679-.543-1.154-1.155-1.154-.61 0-1.154.543-1.154 1.154Zm-31.167 0c0 .68.544 1.155 1.155 1.155.679 0 1.154-.544 1.154-1.155 0-.679-.543-1.154-1.154-1.154-.611 0-1.155.543-1.155 1.154Zm3.124 0c0 .68.543 1.155 1.154 1.155.68 0 1.155-.544 1.155-1.155 0-.679-.544-1.154-1.155-1.154-.61 0-1.154.543-1.154 1.154Zm1.494 2.309c-.68 0-1.155.543-1.155 1.154 0 .68.544 1.154 1.155 1.154.679 0 1.154-.543 1.154-1.154 0-.61-.543-1.154-1.154-1.154Zm-3.192 0c-.679 0-1.154.543-1.154 1.154 0 .611.543 1.154 1.154 1.154.612 0 1.155-.543 1.155-1.154 0-.61-.476-1.154-1.155-1.154Zm6.383 0c-.679 0-1.154.543-1.154 1.154 0 .611.543 1.154 1.154 1.154.68 0 1.154-.543 1.154-1.154 0-.61-.543-1.154-1.154-1.154Zm3.191.068c-.679 0-1.154.543-1.154 1.154 0 .68.543 1.154 1.154 1.154.68 0 1.155-.543 1.155-1.154.068-.611-.476-1.154-1.155-1.154Zm1.494 3.259c-.679 0-1.154.543-1.154 1.154 0 .68.543 1.155 1.154 1.155.68 0 1.155-.544 1.155-1.155.068-.61-.476-1.154-1.155-1.154Zm-3.53 0c-.68 0-1.155.543-1.155 1.154 0 .68.543 1.155 1.154 1.155.68 0 1.155-.544 1.155-1.155 0-.61-.543-1.154-1.155-1.154Zm-3.396 0c-.679 0-1.154.543-1.154 1.154 0 .68.543 1.155 1.154 1.155.68 0 1.155-.544 1.155-1.155 0-.61-.544-1.154-1.155-1.154Zm-3.327 0c-.679 0-1.154.543-1.154 1.154 0 .68.543 1.155 1.154 1.155.68 0 1.155-.544 1.155-1.155 0-.61-.544-1.154-1.155-1.154Zm1.29 3.123c-.679 0-1.154.544-1.154 1.155 0 .679.543 1.154 1.154 1.154.68 0 1.155-.543 1.155-1.154.068-.611-.476-1.155-1.155-1.155Zm3.531-.067c-.679 0-1.154.543-1.154 1.154 0 .611.543 1.154 1.154 1.154.68 0 1.155-.543 1.155-1.154 0-.611-.476-1.154-1.155-1.154Zm3.735-.068c-.68 0-1.155.543-1.155 1.154 0 .679.544 1.154 1.155 1.154.679 0 1.154-.543 1.154-1.154.068-.679-.475-1.154-1.154-1.154Zm4.413-.883c-.679 0-1.154.543-1.154 1.154 0 .68.543 1.155 1.154 1.155.68 0 1.155-.544 1.155-1.155 0-.61-.476-1.154-1.155-1.154Zm3.056-3.735c-.68 0-1.154.544-1.154 1.155 0 .679.543 1.154 1.154 1.154.611 0 1.154-.543 1.154-1.154 0-.68-.543-1.155-1.154-1.155Zm1.154 3.531c-.679 0-1.154.543-1.154 1.155 0 .679.543 1.154 1.154 1.154.611 0 1.155-.543 1.155-1.154.067-.68-.476-1.155-1.155-1.155Zm3.599.68c-.679 0-1.154.542-1.154 1.154 0 .679.543 1.154 1.154 1.154.679 0 1.154-.543 1.154-1.154 0-.612-.475-1.155-1.154-1.155Zm-1.765 2.987c-.68 0-1.155.543-1.155 1.154 0 .68.543 1.155 1.155 1.155.679 0 1.154-.544 1.154-1.155 0-.61-.543-1.154-1.154-1.154Zm-3.396-.95c-.679 0-1.154.543-1.154 1.154 0 .679.543 1.154 1.154 1.154.68 0 1.155-.543 1.155-1.154 0-.68-.543-1.155-1.155-1.155Zm-1.63 2.647c-.678 0-1.153.544-1.153 1.155 0 .679.543 1.154 1.154 1.154.611 0 1.154-.543 1.154-1.154.068-.611-.475-1.155-1.154-1.155Zm-2.919-1.833c-.679 0-1.154.543-1.154 1.154 0 .68.543 1.155 1.154 1.155.68 0 1.154-.543 1.154-1.155 0-.61-.543-1.154-1.154-1.154Zm-1.562 2.716c-.679 0-1.154.543-1.154 1.154 0 .68.543 1.155 1.154 1.155.68 0 1.155-.543 1.155-1.155 0-.61-.544-1.154-1.155-1.154Zm-2.58-2.308c-.679 0-1.154.543-1.154 1.154 0 .679.543 1.154 1.154 1.154.68 0 1.154-.543 1.154-1.154.068-.611-.475-1.154-1.154-1.154Zm-3.802.203c-.68 0-1.155.543-1.155 1.155 0 .679.544 1.154 1.155 1.154.679 0 1.154-.543 1.154-1.154 0-.612-.543-1.155-1.154-1.155Zm2.173 2.648c-.68 0-1.155.544-1.155 1.155 0 .679.543 1.154 1.155 1.154.679 0 1.154-.543 1.154-1.154.068-.68-.475-1.155-1.154-1.155Zm2.648 2.173c-.68 0-1.155.543-1.155 1.155 0 .61.544 1.154 1.155 1.154.679 0 1.154-.543 1.154-1.154 0-.612-.543-1.155-1.154-1.155Zm2.92 1.834c-.68 0-1.155.543-1.155 1.154 0 .679.543 1.154 1.154 1.154.612 0 1.155-.543 1.155-1.154 0-.611-.476-1.154-1.155-1.154Zm1.561-2.717c-.679 0-1.154.544-1.154 1.155 0 .679.543 1.154 1.154 1.154.68 0 1.154-.543 1.154-1.154 0-.611-.475-1.155-1.154-1.155Zm3.191 1.223c-.679 0-1.154.543-1.154 1.154 0 .611.543 1.154 1.154 1.154.68 0 1.155-.543 1.155-1.154 0-.611-.475-1.154-1.155-1.154Zm1.698-2.784c-.679 0-1.154.543-1.154 1.154 0 .611.543 1.154 1.154 1.154.679 0 1.154-.543 1.154-1.154 0-.611-.543-1.154-1.154-1.154Zm3.463.407c-.679 0-1.154.543-1.154 1.154 0 .68.543 1.155 1.154 1.155.679 0 1.154-.543 1.154-1.155 0-.61-.475-1.154-1.154-1.154Zm0 6.247c-.679 0-1.154.543-1.154 1.154 0 .68.543 1.155 1.154 1.155.679 0 1.154-.543 1.154-1.155 0-.679-.475-1.154-1.154-1.154Zm-6.722-1.086c-.68 0-1.155.543-1.155 1.154 0 .679.544 1.154 1.155 1.154.679 0 1.154-.543 1.154-1.154 0-.611-.543-1.154-1.154-1.154Zm3.327.814c-.68 0-1.154.544-1.154 1.155 0 .61.543 1.154 1.154 1.154.679 0 1.154-.543 1.154-1.154 0-.611-.543-1.155-1.154-1.155Zm1.697-2.92c-.679 0-1.154.544-1.154 1.155 0 .68.543 1.154 1.154 1.154.68 0 1.155-.543 1.155-1.154 0-.679-.543-1.154-1.155-1.154Zm-6.993-15.073c-.68 0-1.155.543-1.155 1.154 0 .679.544 1.154 1.155 1.154.679 0 1.154-.543 1.154-1.154.068-.611-.475-1.154-1.154-1.154Zm-8.08-2.445c0 .68.543 1.155 1.154 1.155.679 0 1.154-.544 1.154-1.155 0-.679-.543-1.154-1.154-1.154-.611 0-1.155.543-1.155 1.154Zm3.123 0c0 .68.543 1.155 1.154 1.155.68 0 1.154-.544 1.154-1.155 0-.679-.543-1.154-1.154-1.154-.679 0-1.154.543-1.154 1.154Zm3.123 0c0 .68.544 1.155 1.155 1.155.679 0 1.154-.544 1.154-1.155 0-.679-.543-1.154-1.154-1.154-.68 0-1.155.543-1.155 1.154Zm78.834-2.24c.679 0 1.154-.544 1.154-1.155 0-.679-.543-1.154-1.154-1.154-.611 0-1.155.543-1.155 1.154 0 .611.544 1.154 1.155 1.154Zm3.191 0c.679 0 1.154-.544 1.154-1.155 0-.679-.543-1.154-1.154-1.154-.679 0-1.154.543-1.154 1.154 0 .611.475 1.154 1.154 1.154Zm-6.383-.068c.68 0 1.155-.544 1.155-1.155 0-.679-.544-1.154-1.155-1.154-.679 0-1.154.543-1.154 1.154 0 .68.543 1.155 1.154 1.155Zm-3.191 0c.679 0 1.154-.544 1.154-1.155 0-.679-.543-1.154-1.154-1.154-.68 0-1.154.543-1.154 1.154-.068.611.475 1.155 1.154 1.155Zm-1.494-3.26c.68 0 1.154-.543 1.154-1.154 0-.679-.543-1.154-1.154-1.154-.679 0-1.154.543-1.154 1.154-.068.611.475 1.154 1.154 1.154Zm3.531 0c.679 0 1.154-.543 1.154-1.154 0-.611-.543-1.154-1.154-1.154-.68 0-1.154.543-1.154 1.154 0 .611.543 1.154 1.154 1.154Zm3.395 0c.679 0 1.154-.543 1.154-1.154 0-.679-.543-1.154-1.154-1.154-.679 0-1.154.543-1.154 1.154 0 .611.543 1.154 1.154 1.154Zm3.327 0c.68 0 1.154-.543 1.154-1.154 0-.611-.543-1.154-1.154-1.154-.679 0-1.154.543-1.154 1.154 0 .611.475 1.154 1.154 1.154Zm-1.29-3.123c.68 0 1.154-.543 1.154-1.154 0-.612-.543-1.155-1.154-1.155-.679 0-1.154.543-1.154 1.155 0 .61.475 1.154 1.154 1.154Zm-3.53 0c.678 0 1.154-.543 1.154-1.154 0-.68-.544-1.155-1.155-1.155-.679 0-1.154.543-1.154 1.155-.068.679.475 1.154 1.154 1.154Zm-3.735.136c.679 0 1.154-.544 1.154-1.155 0-.679-.543-1.154-1.154-1.154-.68 0-1.155.543-1.155 1.154-.068.68.476 1.155 1.155 1.155Zm-4.074.34c.679 0 1.154-.544 1.154-1.155 0-.68-.543-1.154-1.154-1.154-.612 0-1.155.543-1.155 1.154 0 .611.543 1.154 1.155 1.154Zm-1.494 2.783c.679 0 1.154-.543 1.154-1.154 0-.68-.543-1.155-1.154-1.155-.611 0-1.155.544-1.155 1.155-.068.61.476 1.154 1.155 1.154Zm-3.667-.747c.68 0 1.154-.543 1.154-1.154 0-.68-.543-1.154-1.154-1.154-.679 0-1.154.543-1.154 1.154-.068.679.475 1.154 1.154 1.154Zm-1.222-4.957c.679 0 1.154-.543 1.154-1.154 0-.679-.543-1.154-1.154-1.154-.68 0-1.154.543-1.154 1.154 0 .611.475 1.154 1.154 1.154Zm2.92 1.834c.679 0 1.154-.543 1.154-1.155 0-.679-.543-1.154-1.154-1.154-.68 0-1.155.543-1.155 1.154-.068.612.476 1.155 1.155 1.155Zm2.105-3.531c.679 0 1.154-.543 1.154-1.154 0-.68-.543-1.155-1.154-1.155-.68 0-1.155.543-1.155 1.155-.068.61.476 1.154 1.155 1.154Zm2.92 1.833c.678 0 1.154-.543 1.154-1.154 0-.611-.544-1.154-1.155-1.154-.679 0-1.154.543-1.154 1.154 0 .611.543 1.154 1.154 1.154Zm1.561-2.716c.679 0 1.154-.543 1.154-1.154 0-.68-.543-1.154-1.154-1.154-.611 0-1.154.543-1.154 1.154 0 .611.543 1.154 1.154 1.154Zm2.58 2.309c.68 0 1.155-.543 1.155-1.155 0-.61-.544-1.154-1.155-1.154-.61 0-1.154.543-1.154 1.154 0 .612.475 1.155 1.154 1.155Zm3.803-.204c.679 0 1.154-.543 1.154-1.154 0-.611-.543-1.155-1.154-1.155-.611 0-1.155.544-1.155 1.155 0 .61.544 1.154 1.155 1.154Zm0-6.994c.679 0 1.154-.543 1.154-1.154 0-.68-.543-1.154-1.154-1.154-.611 0-1.155.543-1.155 1.154 0 .611.544 1.154 1.155 1.154Zm-1.766-5.636c.68 0 1.155-.543 1.155-1.154 0-.611-.544-1.154-1.155-1.154-.679 0-1.154.543-1.154 1.154 0 .611.475 1.154 1.154 1.154Zm-5.975 5.976c.679 0 1.154-.543 1.154-1.155 0-.679-.543-1.154-1.154-1.154-.679 0-1.154.543-1.154 1.154 0 .612.475 1.155 1.154 1.155Zm-1.562 2.716c.68 0 1.155-.543 1.155-1.154 0-.68-.544-1.155-1.155-1.155-.679 0-1.154.543-1.154 1.155-.068.61.475 1.154 1.154 1.154Zm-3.259-1.222c.679 0 1.154-.544 1.154-1.155 0-.679-.543-1.154-1.154-1.154-.611 0-1.154.543-1.154 1.154 0 .611.543 1.155 1.154 1.155Zm-1.63 2.784c.68 0 1.155-.544 1.155-1.155 0-.61-.544-1.154-1.155-1.154-.61 0-1.154.543-1.154 1.154 0 .611.543 1.155 1.154 1.155Zm3.26-5.568c.679 0 1.154-.544 1.154-1.155 0-.679-.543-1.154-1.154-1.154-.611 0-1.155.543-1.155 1.154 0 .611.544 1.155 1.155 1.155Zm-3.328-.815c.68 0 1.155-.543 1.155-1.154 0-.612-.543-1.155-1.155-1.155-.61 0-1.154.543-1.154 1.155 0 .61.543 1.154 1.154 1.154Zm-1.697 2.92c.679 0 1.154-.544 1.154-1.155 0-.679-.543-1.154-1.154-1.154-.611 0-1.154.543-1.154 1.154 0 .611.543 1.155 1.154 1.155Zm6.926 15.074c.679 0 1.154-.544 1.154-1.155 0-.61-.543-1.154-1.154-1.154-.68 0-1.154.543-1.154 1.154 0 .611.543 1.155 1.154 1.155Zm-25.87-1.087c0-.679-.544-1.154-1.155-1.154-.679 0-1.154.543-1.154 1.154 0 .68.543 1.155 1.154 1.155.611.067 1.154-.476 1.154-1.155Zm-3.192.068c0-.679-.543-1.154-1.154-1.154-.68 0-1.155.543-1.155 1.154 0 .68.544 1.154 1.155 1.154.679 0 1.154-.543 1.154-1.154Zm6.383-.068c0-.679-.543-1.154-1.154-1.154-.68 0-1.155.543-1.155 1.154 0 .68.543 1.155 1.155 1.155.61 0 1.154-.476 1.154-1.155Zm3.26-.068c0-.679-.544-1.154-1.155-1.154s-1.155.543-1.155 1.154c0 .68.544 1.155 1.155 1.155.61 0 1.154-.476 1.154-1.155Zm1.493-3.191c0-.679-.543-1.154-1.154-1.154-.612 0-1.155.543-1.155 1.154 0 .679.543 1.154 1.155 1.154.61 0 1.154-.543 1.154-1.154Zm-3.599-.068c0-.679-.543-1.154-1.154-1.154-.611 0-1.154.543-1.154 1.154 0 .611.543 1.154 1.154 1.154.611 0 1.154-.475 1.154-1.154Zm-3.395.068c0-.679-.543-1.154-1.154-1.154-.68 0-1.155.543-1.155 1.154 0 .679.544 1.154 1.155 1.154.61 0 1.154-.543 1.154-1.154Zm-3.327 0c0-.679-.543-1.154-1.154-1.154-.68 0-1.155.543-1.155 1.154 0 .611.544 1.154 1.155 1.154.679 0 1.154-.543 1.154-1.154Zm1.358-3.191c0-.68-.543-1.155-1.154-1.155-.68 0-1.155.544-1.155 1.155 0 .61.544 1.154 1.155 1.154.61.068 1.154-.475 1.154-1.154Zm3.53.068c0-.68-.542-1.155-1.153-1.155-.612 0-1.155.543-1.155 1.155 0 .679.543 1.154 1.155 1.154.61 0 1.154-.475 1.154-1.154Zm3.735.135c0-.679-.543-1.154-1.154-1.154-.679 0-1.154.543-1.154 1.154 0 .68.543 1.155 1.154 1.155.611 0 1.154-.476 1.154-1.155Zm4.007.272c0-.68-.544-1.154-1.155-1.154-.61 0-1.154.543-1.154 1.154 0 .679.543 1.154 1.154 1.154.611 0 1.155-.475 1.155-1.154Zm1.561 2.852c0-.68-.543-1.155-1.154-1.155-.679 0-1.154.544-1.154 1.155 0 .679.543 1.154 1.154 1.154.611 0 1.154-.543 1.154-1.154Zm3.056-2.037c0-.68-.543-1.155-1.154-1.155-.68 0-1.155.544-1.155 1.155 0 .679.543 1.154 1.155 1.154.61 0 1.154-.475 1.154-1.154Zm2.376-1.901c-.679 0-1.154.543-1.154 1.154 0 .679.543 1.154 1.154 1.154.612 0 1.155-.543 1.155-1.154 0-.611-.476-1.154-1.155-1.154Zm-.61-1.834c0-.679-.544-1.154-1.155-1.154-.679 0-1.154.543-1.154 1.154 0 .68.543 1.155 1.154 1.155.611.067 1.154-.476 1.154-1.155Zm-3.396 1.019c0-.68-.543-1.155-1.154-1.155-.68 0-1.154.544-1.154 1.155 0 .679.543 1.154 1.154 1.154.611 0 1.154-.475 1.154-1.154Zm-1.562-2.716c0-.68-.543-1.155-1.154-1.155-.679 0-1.154.544-1.154 1.155 0 .679.543 1.154 1.154 1.154.611.068 1.154-.475 1.154-1.154Zm-2.987 1.9c0-.678-.543-1.153-1.154-1.153-.68 0-1.155.543-1.155 1.154 0 .611.543 1.154 1.155 1.154.61 0 1.154-.543 1.154-1.154Zm-1.562-2.783c0-.68-.543-1.154-1.154-1.154-.68 0-1.155.543-1.155 1.154 0 .679.544 1.154 1.155 1.154.61.068 1.154-.475 1.154-1.154Zm-2.512 2.309c0-.68-.543-1.155-1.155-1.155-.679 0-1.154.543-1.154 1.155 0 .61.543 1.154 1.154 1.154.612.068 1.155-.475 1.155-1.154Zm-3.87-.204c0-.68-.544-1.154-1.155-1.154-.679 0-1.154.543-1.154 1.154 0 .611.543 1.154 1.154 1.154.611.068 1.154-.475 1.154-1.154Zm2.24-2.58c0-.68-.543-1.155-1.154-1.155-.611 0-1.222.476-1.222 1.155s.543 1.154 1.154 1.154c.611 0 1.222-.475 1.222-1.154Zm2.58-2.241c0-.68-.543-1.154-1.154-1.154-.679 0-1.154.543-1.154 1.154 0 .611.543 1.154 1.154 1.154.68.068 1.154-.475 1.154-1.154Zm2.92-1.766c0-.679-.543-1.154-1.154-1.154-.68 0-1.155.543-1.155 1.154 0 .68.544 1.155 1.155 1.155.679 0 1.154-.543 1.154-1.155Zm1.63 2.649c0-.68-.543-1.155-1.155-1.155-.679 0-1.154.543-1.154 1.155 0 .679.543 1.154 1.154 1.154.612.068 1.155-.475 1.155-1.154Zm3.191-1.223c0-.679-.543-1.154-1.154-1.154-.68 0-1.155.543-1.155 1.154 0 .68.544 1.155 1.155 1.155.61.068 1.154-.476 1.154-1.155Zm1.63 2.784c0-.679-.543-1.154-1.155-1.154-.679 0-1.154.543-1.154 1.154 0 .611.543 1.155 1.154 1.155.612.068 1.155-.476 1.155-1.155Zm2.308-1.561c-.679 0-1.154.543-1.154 1.154 0 .611.543 1.154 1.154 1.154.612 0 1.155-.543 1.155-1.154 0-.611-.476-1.154-1.155-1.154ZM151.956.53c-.68 0-1.154.544-1.154 1.155 0 .61.543 1.154 1.154 1.154.679 0 1.154-.543 1.154-1.154 0-.611-.475-1.155-1.154-1.155Zm-3.124 7.537c0-.679-.543-1.154-1.154-1.154-.679 0-1.154.543-1.154 1.154 0 .68.543 1.155 1.154 1.155.611.068 1.154-.476 1.154-1.155Zm3.328-.746c0-.68-.544-1.155-1.155-1.155-.679 0-1.154.543-1.154 1.155 0 .61.543 1.154 1.154 1.154.611 0 1.155-.543 1.155-1.154Zm1.697 2.92c0-.68-.543-1.155-1.154-1.155-.68 0-1.154.543-1.154 1.154 0 .68.543 1.155 1.154 1.155.611 0 1.154-.544 1.154-1.155Zm-6.926 15.005c0-.679-.543-1.154-1.154-1.154-.611 0-1.154.543-1.154 1.154 0 .612.543 1.155 1.154 1.155.611 0 1.154-.476 1.154-1.155Zm28.111 3.6c0 .678.544 1.154 1.155 1.154.61 0 1.154-.544 1.154-1.155 0-.679-.543-1.154-1.154-1.154-.611 0-1.155.543-1.155 1.154Zm-3.123 0c0 .678.543 1.154 1.154 1.154.611 0 1.155-.544 1.155-1.155 0-.679-.544-1.154-1.155-1.154-.61 0-1.154.543-1.154 1.154Zm-.272 3.53c0 .68.544 1.154 1.155 1.154.61 0 1.154-.543 1.154-1.154 0-.679-.543-1.154-1.154-1.154-.611 0-1.155.475-1.155 1.154Zm3.192-.068c0 .68.543 1.154 1.154 1.154.679 0 1.154-.543 1.154-1.154 0-.61-.543-1.154-1.154-1.154-.679 0-1.154.475-1.154 1.154Zm-6.383.068c0 .68.543 1.154 1.154 1.154.68 0 1.155-.543 1.155-1.154 0-.611-.544-1.154-1.155-1.154-.61-.068-1.154.475-1.154 1.154Zm-3.26.068c0 .679.544 1.154 1.155 1.154.679 0 1.154-.543 1.154-1.154 0-.679-.543-1.154-1.154-1.154-.611-.068-1.154.475-1.154 1.154Zm-1.493 3.191c0 .68.543 1.155 1.154 1.155.68 0 1.155-.544 1.155-1.155 0-.679-.544-1.154-1.155-1.154-.61 0-1.154.543-1.154 1.154Zm3.599 0c0 .68.543 1.155 1.154 1.155.679 0 1.154-.544 1.154-1.155 0-.679-.543-1.154-1.154-1.154-.611 0-1.154.543-1.154 1.154Zm3.395 0c0 .68.543 1.155 1.154 1.155.679 0 1.154-.544 1.154-1.155 0-.679-.543-1.154-1.154-1.154-.611 0-1.154.543-1.154 1.154Zm3.327 0c0 .68.543 1.155 1.154 1.155.68 0 1.154-.544 1.154-1.155 0-.679-.543-1.154-1.154-1.154-.679 0-1.154.543-1.154 1.154Zm-1.358 3.192c0 .679.543 1.154 1.154 1.154.68 0 1.154-.543 1.154-1.154 0-.68-.543-1.155-1.154-1.155-.611-.068-1.154.476-1.154 1.155Zm-3.531-.068c0 .679.543 1.154 1.154 1.154.68 0 1.155-.543 1.155-1.154 0-.611-.544-1.155-1.155-1.155-.61-.067-1.154.476-1.154 1.155Zm-3.735-.136c0 .679.544 1.154 1.155 1.154.679 0 1.154-.543 1.154-1.154 0-.679-.543-1.154-1.154-1.154-.611 0-1.155.475-1.155 1.154Zm-4.006-.272c0 .68.543 1.155 1.155 1.155.61 0 1.154-.544 1.154-1.155 0-.679-.543-1.154-1.154-1.154-.612 0-1.155.475-1.155 1.154Zm-1.562-2.851c0 .679.544 1.154 1.155 1.154.61 0 1.154-.543 1.154-1.154 0-.612-.543-1.155-1.154-1.155-.611 0-1.155.543-1.155 1.155Zm-3.055 2.037c0 .679.543 1.154 1.154 1.154.68 0 1.155-.543 1.155-1.154 0-.68-.544-1.155-1.155-1.155-.61 0-1.154.476-1.154 1.155Zm-1.765 3.734c0 .68.543 1.154 1.154 1.154.679 0 1.154-.543 1.154-1.154 0-.679-.543-1.154-1.154-1.154-.68-.068-1.154.475-1.154 1.154Zm3.395-1.018c0 .679.543 1.154 1.154 1.154.679 0 1.154-.543 1.154-1.154 0-.68-.543-1.155-1.154-1.155-.611 0-1.154.476-1.154 1.155Zm1.561 2.716c0 .679.544 1.154 1.155 1.154.679 0 1.154-.543 1.154-1.154 0-.68-.543-1.155-1.154-1.155-.611-.068-1.155.476-1.155 1.155Zm2.988-1.902c0 .68.543 1.155 1.154 1.155.68 0 1.155-.543 1.155-1.155 0-.679-.544-1.154-1.155-1.154-.61 0-1.154.543-1.154 1.154Zm1.562 2.784c0 .68.543 1.155 1.154 1.155.611 0 1.154-.544 1.154-1.155 0-.679-.543-1.154-1.154-1.154-.611 0-1.154.475-1.154 1.154Zm2.512-2.376c0 .679.543 1.154 1.154 1.154.611 0 1.155-.543 1.155-1.154 0-.68-.544-1.154-1.155-1.154-.61 0-1.154.543-1.154 1.154Zm3.87.271c0 .68.544 1.155 1.155 1.155.61 0 1.154-.543 1.154-1.155 0-.679-.543-1.154-1.154-1.154-.611 0-1.155.475-1.155 1.154Zm-.068 5.772c0 .68.544 1.154 1.155 1.154.679 0 1.154-.543 1.154-1.154 0-.679-.543-1.154-1.154-1.154-.611 0-1.155.475-1.155 1.154Zm-4.753-.95c0 .678.544 1.154 1.155 1.154.679 0 1.154-.543 1.154-1.155 0-.61-.543-1.154-1.154-1.154-.68-.068-1.155.475-1.155 1.154Zm-2.92 1.765c0 .679.544 1.154 1.155 1.154.679 0 1.154-.543 1.154-1.154 0-.68-.543-1.154-1.154-1.154-.679 0-1.154.543-1.154 1.154Zm-1.629-2.716c0 .679.543 1.154 1.154 1.154.68 0 1.155-.543 1.155-1.154 0-.68-.544-1.155-1.155-1.155-.61 0-1.154.544-1.154 1.155Zm-3.191 1.29c0 .679.543 1.154 1.154 1.154.611 0 1.154-.543 1.154-1.154 0-.611-.543-1.154-1.154-1.154-.611 0-1.154.475-1.154 1.154Zm-1.63-2.784c0 .679.543 1.154 1.154 1.154.611 0 1.155-.543 1.155-1.154 0-.611-.544-1.154-1.155-1.154-.61 0-1.154.475-1.154 1.154Zm3.26 5.568c0 .679.543 1.154 1.154 1.154.61 0 1.154-.543 1.154-1.154 0-.68-.543-1.154-1.154-1.154-.611 0-1.155.475-1.155 1.154Zm-3.328.747c0 .679.543 1.154 1.154 1.154.612 0 1.155-.543 1.155-1.154 0-.611-.543-1.155-1.155-1.155-.61 0-1.154.544-1.154 1.155Zm-1.697-2.92c0 .68.543 1.154 1.154 1.154.611 0 1.154-.543 1.154-1.154 0-.679-.543-1.154-1.154-1.154-.611 0-1.154.475-1.154 1.154Zm6.926-15.006c0 .679.543 1.154 1.154 1.154.679 0 1.154-.543 1.154-1.154 0-.68-.543-1.154-1.154-1.154-.611-.068-1.154.475-1.154 1.154Zm6.925-3.667c0 .68.544 1.155 1.155 1.155.61 0 1.154-.544 1.154-1.155 0-.679-.543-1.154-1.154-1.154-.611 0-1.155.543-1.155 1.154Zm-3.123 0c0 .68.543 1.155 1.154 1.155.611 0 1.155-.544 1.155-1.155 0-.679-.544-1.154-1.155-1.154-.61 0-1.154.543-1.154 1.154Zm-3.123 0c0 .68.543 1.155 1.154 1.155.611 0 1.154-.544 1.154-1.155 0-.679-.543-1.154-1.154-1.154-.611 0-1.154.543-1.154 1.154Zm-31.167 0c0 .68.543 1.155 1.154 1.155.68 0 1.155-.544 1.155-1.155 0-.679-.544-1.154-1.155-1.154-.61 0-1.154.543-1.154 1.154Zm3.123 0c0 .68.544 1.155 1.155 1.155.679 0 1.154-.544 1.154-1.155 0-.679-.543-1.154-1.154-1.154-.611 0-1.155.543-1.155 1.154ZM136 31.155c-.679 0-1.154.543-1.154 1.154 0 .68.543 1.154 1.154 1.154.68 0 1.154-.543 1.154-1.154 0-.61-.543-1.154-1.154-1.154Zm-5.296 2.512c-.68 0-1.154.543-1.154 1.155 0 .679.543 1.154 1.154 1.154.679 0 1.154-.543 1.154-1.154.068-.612-.475-1.155-1.154-1.155Zm8.488-2.512c-.68 0-1.155.543-1.155 1.154 0 .611.543 1.154 1.155 1.154.679 0 1.154-.543 1.154-1.154 0-.61-.543-1.154-1.154-1.154Zm3.19.068c-.678 0-1.153.543-1.153 1.154 0 .68.543 1.154 1.154 1.154.611 0 1.154-.543 1.154-1.154.068-.611-.475-1.154-1.154-1.154Zm1.495 3.259c-.68 0-1.155.543-1.155 1.154 0 .68.544 1.155 1.155 1.155.61 0 1.154-.544 1.154-1.155.068-.61-.475-1.154-1.154-1.154Zm-3.531 0c-.68 0-1.154.543-1.154 1.154 0 .68.543 1.155 1.154 1.155.611 0 1.154-.544 1.154-1.155 0-.61-.543-1.154-1.154-1.154Zm-3.395 0c-.68 0-1.155.543-1.155 1.154 0 .68.544 1.155 1.155 1.155.679 0 1.154-.544 1.154-1.155 0-.61-.543-1.154-1.154-1.154Zm-4.618 10.05c-.679 0-1.154.543-1.154 1.154 0 .679.543 1.154 1.154 1.154.68 0 1.155-.543 1.155-1.154.068-.611-.475-1.155-1.155-1.155Zm2.58-6.927c-.678 0-1.154.544-1.154 1.155 0 .679.544 1.154 1.155 1.154.679 0 1.154-.543 1.154-1.154.068-.611-.475-1.155-1.154-1.155Zm3.532-.067c-.68 0-1.155.543-1.155 1.154 0 .611.543 1.154 1.155 1.154.61 0 1.154-.543 1.154-1.154 0-.611-.475-1.154-1.154-1.154Zm3.734-.068c-.679 0-1.154.543-1.154 1.154 0 .679.543 1.154 1.154 1.154.68 0 1.154-.543 1.154-1.154.068-.679-.475-1.154-1.154-1.154Zm4.074-.34c-.679 0-1.154.543-1.154 1.154 0 .68.543 1.155 1.154 1.155.611 0 1.155-.543 1.155-1.155 0-.61-.544-1.154-1.155-1.154Zm1.494-2.784c-.679 0-1.154.543-1.154 1.155 0 .61.543 1.154 1.154 1.154.68 0 1.154-.543 1.154-1.154 0-.612-.475-1.155-1.154-1.155Zm3.056 2.037c-.68 0-1.155.543-1.155 1.155 0 .679.544 1.154 1.155 1.154.679 0 1.154-.543 1.154-1.154.068-.68-.475-1.155-1.154-1.155Zm3.598.68c-.679 0-1.154.542-1.154 1.154 0 .679.543 1.154 1.154 1.154.612 0 1.155-.543 1.155-1.154 0-.612-.476-1.155-1.155-1.155Zm-1.765 2.987c-.679 0-1.154.543-1.154 1.154 0 .68.543 1.155 1.154 1.155.679 0 1.154-.544 1.154-1.155 0-.61-.543-1.154-1.154-1.154Zm-3.395-.95c-.68 0-1.154.543-1.154 1.154 0 .679.543 1.154 1.154 1.154.679 0 1.154-.543 1.154-1.154 0-.68-.543-1.155-1.154-1.155Zm-1.63 2.647c-.679 0-1.154.544-1.154 1.155 0 .679.543 1.154 1.154 1.154.68 0 1.155-.543 1.155-1.154.067-.611-.476-1.155-1.155-1.155Zm-2.92-1.833c-.678 0-1.154.543-1.154 1.154 0 .68.543 1.155 1.155 1.155.679 0 1.154-.543 1.154-1.155 0-.61-.543-1.154-1.154-1.154Zm-1.561 2.716c-.68 0-1.155.543-1.155 1.154 0 .68.544 1.155 1.155 1.155.679 0 1.154-.543 1.154-1.155 0-.61-.543-1.154-1.154-1.154Zm-2.58-2.308c-.68 0-1.155.543-1.155 1.154 0 .679.543 1.154 1.155 1.154.679 0 1.154-.543 1.154-1.154.068-.611-.475-1.154-1.154-1.154Zm-3.803.203c-.679 0-1.154.543-1.154 1.155 0 .679.543 1.154 1.154 1.154.68 0 1.154-.543 1.154-1.154 0-.612-.543-1.155-1.154-1.155Zm.34 5.093c-.68 0-1.155.543-1.155 1.154 0 .611.543 1.154 1.155 1.154.679 0 1.154-.543 1.154-1.154 0-.611-.475-1.154-1.154-1.154Zm4.481-.272c-.679 0-1.154.543-1.154 1.155 0 .61.543 1.154 1.154 1.154.68 0 1.154-.543 1.154-1.154 0-.612-.475-1.155-1.154-1.155Zm2.92 1.834c-.68 0-1.155.543-1.155 1.154 0 .679.544 1.154 1.155 1.154.679 0 1.154-.543 1.154-1.154 0-.611-.475-1.154-1.154-1.154Zm1.562-2.717c-.68 0-1.155.544-1.155 1.155 0 .679.543 1.154 1.155 1.154.679 0 1.154-.543 1.154-1.154.068-.611-.475-1.155-1.154-1.155Zm3.259 1.223c-.68 0-1.155.543-1.155 1.154 0 .611.544 1.154 1.155 1.154.679 0 1.154-.543 1.154-1.154 0-.611-.543-1.154-1.154-1.154Zm1.63-2.784c-.68 0-1.155.543-1.155 1.154 0 .611.543 1.154 1.154 1.154.68 0 1.155-.543 1.155-1.154 0-.611-.543-1.154-1.155-1.154Zm3.462.407c-.679 0-1.154.543-1.154 1.154 0 .68.543 1.155 1.154 1.155.612 0 1.155-.543 1.155-1.155 0-.61-.476-1.154-1.155-1.154Zm0 6.247c-.679 0-1.154.543-1.154 1.154 0 .68.543 1.155 1.154 1.155.612 0 1.155-.543 1.155-1.155 0-.679-.476-1.154-1.155-1.154Zm-6.722-1.086c-.679 0-1.154.543-1.154 1.154 0 .679.543 1.154 1.154 1.154.68 0 1.154-.543 1.154-1.154 0-.611-.543-1.154-1.154-1.154Zm3.327.814c-.679 0-1.154.544-1.154 1.155 0 .61.543 1.154 1.154 1.154.68 0 1.155-.543 1.155-1.154 0-.611-.544-1.155-1.155-1.155Zm1.698-2.92c-.68 0-1.154.544-1.154 1.155 0 .68.543 1.154 1.154 1.154.679 0 1.154-.543 1.154-1.154 0-.679-.543-1.154-1.154-1.154Zm-6.926-15.073c-.68 0-1.154.543-1.154 1.154 0 .679.543 1.154 1.154 1.154.611 0 1.154-.543 1.154-1.154 0-.611-.543-1.154-1.154-1.154Zm-8.148-2.445c0 .68.543 1.155 1.154 1.155.68 0 1.154-.544 1.154-1.155 0-.679-.543-1.154-1.154-1.154-.611 0-1.154.543-1.154 1.154Zm3.123 0c0 .68.543 1.155 1.155 1.155.679 0 1.154-.544 1.154-1.155 0-.679-.543-1.154-1.154-1.154-.612 0-1.155.543-1.155 1.154Zm3.124 0c0 .68.543 1.155 1.154 1.155.679 0 1.154-.544 1.154-1.155 0-.679-.543-1.154-1.154-1.154-.679 0-1.154.543-1.154 1.154ZM63.752 4.673c0-.679-.543-1.154-1.154-1.154-.68 0-1.154.543-1.154 1.154 0 .68.543 1.155 1.154 1.155.611.068 1.154-.476 1.154-1.155Zm-6.722 4.55c0-.68-.543-1.155-1.154-1.155-.611 0-1.155.544-1.155 1.155 0 .679.544 1.154 1.155 1.154.61 0 1.154-.475 1.154-1.154Zm7.47 3.395c0-.68-.544-1.155-1.155-1.155-.68 0-1.154.544-1.154 1.155 0 .679.543 1.154 1.154 1.154.611.068 1.154-.475 1.154-1.154Zm0 3.26c0-.68-.544-1.155-1.155-1.155-.68 0-1.154.543-1.154 1.154 0 .68.543 1.154 1.154 1.154.611.068 1.154-.475 1.154-1.154Zm3.258-6.452c0-.679-.543-1.154-1.154-1.154-.679 0-1.154.543-1.154 1.154 0 .612.543 1.155 1.154 1.155.611 0 1.154-.476 1.154-1.155Zm0 3.26c0-.68-.543-1.155-1.154-1.155-.679 0-1.154.544-1.154 1.155 0 .61.543 1.154 1.154 1.154.611 0 1.154-.543 1.154-1.154Zm0 3.191c0-.679-.543-1.154-1.154-1.154-.679 0-1.154.543-1.154 1.154 0 .68.543 1.154 1.154 1.154.611.068 1.154-.475 1.154-1.154Zm3.26-6.45c0-.68-.544-1.155-1.155-1.155-.61 0-1.154.543-1.154 1.154 0 .612.543 1.155 1.154 1.155.611 0 1.155-.476 1.155-1.155Zm0 3.259c0-.68-.544-1.155-1.155-1.155-.61 0-1.154.544-1.154 1.155 0 .61.543 1.154 1.154 1.154.611 0 1.155-.543 1.155-1.154Zm0 3.191c0-.679-.544-1.154-1.155-1.154-.61 0-1.154.543-1.154 1.154 0 .68.543 1.154 1.154 1.154.611 0 1.155-.475 1.155-1.154Zm0 3.26c0-.68-.544-1.155-1.155-1.155-.61 0-1.154.543-1.154 1.154 0 .611.543 1.155 1.154 1.155.611 0 1.155-.476 1.155-1.155Zm0 3.259c0-.68-.544-1.155-1.155-1.155-.61 0-1.154.543-1.154 1.155 0 .679.543 1.154 1.154 1.154.611 0 1.155-.475 1.155-1.154Zm0 3.259c0-.68-.544-1.154-1.155-1.154-.61 0-1.154.543-1.154 1.154 0 .611.543 1.154 1.154 1.154.611 0 1.155-.543 1.155-1.154Zm0 3.26c0-.68-.544-1.155-1.155-1.155-.61 0-1.154.543-1.154 1.154 0 .68.543 1.154 1.154 1.154.611 0 1.155-.543 1.155-1.154Zm0 3.19c0-.679-.544-1.154-1.155-1.154-.61 0-1.154.543-1.154 1.154 0 .612.543 1.155 1.154 1.155.611 0 1.155-.476 1.155-1.155Zm0 3.26c0-.68-.544-1.155-1.155-1.155-.61 0-1.154.544-1.154 1.155 0 .679.543 1.154 1.154 1.154.611 0 1.155-.475 1.155-1.154Zm0 3.259c0-.679-.544-1.154-1.155-1.154-.61 0-1.154.543-1.154 1.154 0 .611.543 1.154 1.154 1.154.611 0 1.155-.475 1.155-1.154Zm0 3.26c0-.68-.544-1.155-1.155-1.155-.61 0-1.154.543-1.154 1.154 0 .68.543 1.155 1.154 1.155.611 0 1.155-.544 1.155-1.155Zm0 3.259c0-.68-.544-1.155-1.155-1.155-.61 0-1.154.543-1.154 1.155 0 .61.543 1.154 1.154 1.154.611 0 1.155-.543 1.155-1.154Zm0 3.19c0-.678-.544-1.153-1.155-1.153-.61 0-1.154.543-1.154 1.154 0 .679.543 1.154 1.154 1.154.611 0 1.155-.475 1.155-1.154Zm3.259-38.907c0-.679-.543-1.154-1.154-1.154-.68 0-1.155.543-1.155 1.154 0 .612.544 1.155 1.155 1.155.679 0 1.154-.476 1.154-1.155Zm0 3.26c0-.68-.543-1.155-1.154-1.155-.68 0-1.155.544-1.155 1.155 0 .61.544 1.154 1.155 1.154.679 0 1.154-.543 1.154-1.154Zm0 3.191c0-.679-.543-1.154-1.154-1.154-.68 0-1.155.543-1.155 1.154 0 .68.544 1.154 1.155 1.154.679.068 1.154-.475 1.154-1.154Zm0 3.26c0-.68-.543-1.155-1.154-1.155-.68 0-1.155.543-1.155 1.154 0 .611.544 1.155 1.155 1.155.679.068 1.154-.476 1.154-1.155Zm0 3.259c0-.68-.543-1.155-1.154-1.155-.68 0-1.155.543-1.155 1.155 0 .679.544 1.154 1.155 1.154.679.068 1.154-.475 1.154-1.154Zm0 3.259c0-.68-.543-1.154-1.154-1.154-.68 0-1.155.543-1.155 1.154 0 .611.544 1.154 1.155 1.154.679 0 1.154-.543 1.154-1.154Zm0 3.26c0-.68-.543-1.155-1.154-1.155-.68 0-1.155.543-1.155 1.154 0 .68.544 1.154 1.155 1.154.679 0 1.154-.543 1.154-1.154Zm0 3.19c0-.679-.543-1.154-1.154-1.154-.68 0-1.155.543-1.155 1.154 0 .612.544 1.155 1.155 1.155.679.068 1.154-.476 1.154-1.155Zm0 3.26c0-.68-.543-1.155-1.154-1.155-.68 0-1.155.544-1.155 1.155 0 .679.544 1.154 1.155 1.154.679.068 1.154-.475 1.154-1.154Zm0 3.259c0-.679-.543-1.154-1.154-1.154-.68 0-1.155.543-1.155 1.154 0 .611.544 1.154 1.155 1.154.679 0 1.154-.475 1.154-1.154Zm0 3.26c0-.68-.543-1.155-1.154-1.155-.68 0-1.155.543-1.155 1.154 0 .68.544 1.155 1.155 1.155.679 0 1.154-.544 1.154-1.155Zm0 3.259c0-.68-.543-1.155-1.154-1.155-.68 0-1.155.543-1.155 1.155 0 .61.544 1.154 1.155 1.154.679 0 1.154-.543 1.154-1.154Zm0 3.19c0-.678-.543-1.153-1.154-1.153-.68 0-1.155.543-1.155 1.154 0 .679.544 1.154 1.155 1.154.679.068 1.154-.475 1.154-1.154Zm3.327-38.907c0-.679-.543-1.154-1.154-1.154-.68 0-1.155.543-1.155 1.154 0 .68.544 1.155 1.155 1.155.61 0 1.154-.543 1.154-1.155Zm0 3.192c0-.68-.543-1.155-1.154-1.155-.68 0-1.155.544-1.155 1.155 0 .679.544 1.154 1.155 1.154.61.068 1.154-.475 1.154-1.154Zm0 3.26c0-.68-.543-1.155-1.154-1.155-.68 0-1.155.543-1.155 1.154 0 .68.544 1.154 1.155 1.154.61.068 1.154-.475 1.154-1.154Zm0 3.258c0-.679-.543-1.154-1.154-1.154-.68 0-1.155.543-1.155 1.154 0 .68.544 1.155 1.155 1.155.61 0 1.154-.476 1.154-1.155Zm0 3.26c0-.68-.543-1.155-1.154-1.155-.68 0-1.155.543-1.155 1.155 0 .679.544 1.154 1.155 1.154.61 0 1.154-.543 1.154-1.154Zm0 3.259c0-.68-.543-1.154-1.154-1.154-.68 0-1.155.543-1.155 1.154 0 .679.544 1.154 1.155 1.154.61 0 1.154-.543 1.154-1.154Zm0 3.191c0-.679-.543-1.154-1.154-1.154-.68 0-1.155.543-1.155 1.154 0 .68.544 1.155 1.155 1.155.61.067 1.154-.476 1.154-1.155Zm0 3.26c0-.68-.543-1.155-1.154-1.155-.68 0-1.155.543-1.155 1.154 0 .68.544 1.155 1.155 1.155.61.068 1.154-.476 1.154-1.155Zm0 3.259c0-.68-.543-1.155-1.154-1.155-.68 0-1.155.544-1.155 1.155 0 .679.544 1.154 1.155 1.154.61 0 1.154-.475 1.154-1.154Zm0 3.259c0-.679-.543-1.154-1.154-1.154-.68 0-1.155.543-1.155 1.154 0 .679.544 1.154 1.155 1.154.61 0 1.154-.543 1.154-1.154Zm0 3.191c0-.679-.543-1.154-1.154-1.154-.68 0-1.155.543-1.155 1.154 0 .68.544 1.155 1.155 1.155.61.068 1.154-.476 1.154-1.155Zm0 3.26c0-.68-.543-1.155-1.154-1.155-.68 0-1.155.543-1.155 1.155 0 .679.544 1.154 1.155 1.154.61.068 1.154-.475 1.154-1.154Zm3.87 6.586c0-.679-.543-1.154-1.154-1.154-.679 0-1.154.543-1.154 1.154 0 .679.543 1.154 1.154 1.154.611 0 1.154-.543 1.154-1.154Zm3.396-4.821c0-.679-.544-1.154-1.155-1.154-.679 0-1.154.543-1.154 1.154 0 .611.543 1.154 1.154 1.154.611 0 1.155-.475 1.155-1.154Z" fill="#0060AF"/>
  </g>
</svg>
