<svg xmlns="http://www.w3.org/2000/svg" width="193.972" height="122" viewBox="0 0 193.972 122"><g id="EN" transform="translate(-25.48 -16.601)"><g id="Gruppe_17" data-name="Gruppe 17" transform="translate(25.48 16.601)" fill="#161615"><path id="Pfad_24" data-name="Pfad 24" d="M35.526 24.79l-3.078 8.993h-1.3l-1.61-5.153h-.028l-1.81 5.152h-1.28l-3.136-8.992-.607-.14c-.141-.043-.2-.1-.2-.184a1.254 1.254 0 01.157-.424h3.446a1.182 1.182 0 01.013.156c0 .226-.113.409-.479.494l-.58.126 2.275 7.282h.042l1.708-4.871-.748-2.442-.593-.14c-.14-.043-.2-.1-.2-.184a1.25 1.25 0 01.156-.424h3.429a1.078 1.078 0 01.015.156c0 .226-.113.409-.479.494l-.636.126 2.032 7.3h.042l2.4-7.313-.99-.184c-.14-.027-.2-.07-.2-.155a1.328 1.328 0 01.155-.424h2.894a1.078 1.078 0 01.015.156c0 .253-.113.409-.48.508z" transform="translate(-22.48 -23.449)"/><path id="Pfad_25" data-name="Pfad 25" d="M35.56 33.114l.832.183c.143.03.2.071.2.184a.947.947 0 01-.143.4h-3.233a1.146 1.146 0 01-.013-.128c0-.253.169-.366.437-.465l.495-.169v-5.228l-1-.156a1.143 1.143 0 01-.013-.141c0-.239.183-.409.522-.437l1.92-.184zm-.719-7.539a.9.9 0 110-1.807.9.9 0 110 1.807" transform="translate(-18.812 -23.543)"/><path id="Pfad_26" data-name="Pfad 26" d="M40.385 27.48h-1.933v4.12c0 .636.2 1.158.9 1.158a1.955 1.955 0 001.115-.339 1.038 1.038 0 01.128.467c0 .141-.495.8-1.781.8a1.621 1.621 0 01-1.793-1.836v-4.37h-1.055a1.146 1.146 0 01-.013-.128.475.475 0 01.437-.479l.691-.169.325-1.907h1.045V26.7h2.09z" transform="translate(-17.835 -23.189)"/><path id="Pfad_27" data-name="Pfad 27" d="M42.411 27.942h.028a2.745 2.745 0 012.175-1.017c1.412 0 2.216.832 2.216 2.485v3.741l.819.183c.141.028.2.07.2.183a.968.968 0 01-.141.4H44.5a1.049 1.049 0 01-.015-.126c0-.254.169-.382.437-.465l.467-.169V29.58c0-1.2-.65-1.568-1.37-1.568a2.122 2.122 0 00-1.608.65v4.49l.791.183c.14.028.2.07.2.183a.806.806 0 01-.14.4h-3.2a1.049 1.049 0 01-.015-.126c0-.254.169-.382.438-.465l.494-.169v-8.57l-1-.141a1.387 1.387 0 01-.015-.155c0-.239.184-.409.523-.438l1.934-.183z" transform="translate(-16.455 -23.579)"/><path id="Pfad_28" data-name="Pfad 28" d="M52.586 27.892h-1.722v5.28l.96.183c.141.03.2.071.2.184a.792.792 0 01-.141.4h-3.362a1.046 1.046 0 01-.015-.128c0-.253.169-.366.438-.465l.479-.169v-5.28H48.38a1.046 1.046 0 01-.015-.128c0-.268.169-.409.438-.479l.62-.169v-.143c0-2.273 1.384-3.373 2.6-3.373.706 0 .988.311.988.748a.726.726 0 01-.424.663 1.371 1.371 0 00-.932-.409c-.608 0-.819.339-.819 1.171 0 .438.028 1.342.028 1.342h1.877z" transform="translate(-13.555 -23.601)"/><path id="Pfad_29" data-name="Pfad 29" d="M58.874 32.264l1.03.141a.559.559 0 01.013.113c0 .254-.183.424-.523.452l-1.863.169v-.932H57.5a2.515 2.515 0 01-2.09 1.017c-1.51 0-2.215-.889-2.215-2.556v-3.6l-1-.156a.959.959 0 01-.016-.141c0-.239.186-.409.523-.437l1.919-.184v4.45c0 1.286.678 1.581 1.3 1.581a1.948 1.948 0 001.524-.678v-4.434l-1-.156a1.143 1.143 0 01-.013-.141c0-.239.184-.409.522-.437l1.922-.184z" transform="translate(-12.239 -22.722)"/><path id="Pfad_30" data-name="Pfad 30" d="M65.456 32.314l.834.183c.141.03.2.071.2.184a.968.968 0 01-.141.4H63.14a1.146 1.146 0 01-.013-.128c0-.253.169-.381.438-.465l.465-.169v-3.577c0-1.2-.678-1.567-1.369-1.567a2.492 2.492 0 00-1.625.621v4.517l.8.183c.143.03.2.071.2.184a.947.947 0 01-.143.4h-3.2a1.046 1.046 0 01-.015-.128c0-.253.169-.366.438-.465l.494-.169v-5.227l-1-.156a1.043 1.043 0 01-.015-.141c0-.239.184-.409.523-.437l1.919-.184-.085.988H61a2.909 2.909 0 012.314-1.072c1.385 0 2.146.889 2.146 2.484z" transform="translate(-10.028 -22.743)"/><path id="Pfad_31" data-name="Pfad 31" d="M71.022 33.122l1.03.141a.512.512 0 01.015.113c0 .254-.184.424-.523.452L69.68 34v-.917h-.042a2.33 2.33 0 01-2 1c-1.384 0-2.683-.889-2.683-3.346a3.537 3.537 0 013.642-3.811 4.365 4.365 0 011 .126V24.58l-1-.14a1.563 1.563 0 01-.013-.156c0-.239.183-.409.522-.437l1.92-.184zM69.6 28.195a1.7 1.7 0 00-1.186-.422c-1.143 0-1.99.818-1.99 2.682 0 1.821.791 2.555 1.736 2.555a1.828 1.828 0 001.44-.593z" transform="translate(-7.836 -23.58)"/><path id="Pfad_32" data-name="Pfad 32" d="M73.345 33.114l.832.183c.143.03.2.071.2.184a.947.947 0 01-.143.4H71a1.146 1.146 0 01-.013-.128c0-.253.169-.366.437-.465l.495-.169v-5.228l-1-.156a1.143 1.143 0 01-.013-.141c0-.239.183-.409.522-.437l1.92-.184zm-.719-7.539a.9.9 0 110-1.807.9.9 0 110 1.807" transform="translate(-5.784 -23.543)"/><path id="Pfad_33" data-name="Pfad 33" d="M81.013 32.314l.834.183c.141.03.2.071.2.184a.968.968 0 01-.141.4H78.7a1.146 1.146 0 01-.013-.128c0-.253.169-.381.438-.465l.465-.169v-3.577c0-1.2-.678-1.567-1.369-1.567a2.492 2.492 0 00-1.625.621v4.517l.8.183c.143.03.2.071.2.184a.947.947 0 01-.143.4h-3.2a1.046 1.046 0 01-.015-.128c0-.253.169-.366.438-.465l.494-.169v-5.227l-1-.156a1.042 1.042 0 01-.015-.141c0-.239.184-.409.523-.437l1.919-.184-.085.988h.043a2.909 2.909 0 012.314-1.072c1.385 0 2.146.889 2.146 2.484z" transform="translate(-4.664 -22.743)"/><path id="Pfad_34" data-name="Pfad 34" d="M86.964 27.063h-1.143a2.079 2.079 0 01.437 1.286c0 1.5-1.243 2.343-2.781 2.343a3.366 3.366 0 01-.664-.07.719.719 0 00-.4.635c0 .339.226.495.707.495h1.638c1.3 0 2.032.592 2.032 1.608 0 1.412-1.384 2.711-3.769 2.711-1.736 0-2.583-.607-2.583-1.638a1.7 1.7 0 011.284-1.61v-.028a1.064 1.064 0 01-.578-.987 1.6 1.6 0 011.017-1.342v-.028a2.161 2.161 0 01-1.3-2.088c0-1.483 1.243-2.259 2.682-2.259a3.6 3.6 0 011.1.169h2.47zM82.9 33.02c-.2 0-.368-.013-.523-.028a1.161 1.161 0 00-.606 1.045c0 .734.452 1.2 1.482 1.2 1.369 0 2.216-.636 2.216-1.385 0-.578-.324-.832-1.044-.832zm-.621-4.658c0 1.116.565 1.553 1.269 1.553.764 0 1.314-.437 1.314-1.553 0-1-.55-1.512-1.284-1.512s-1.3.425-1.3 1.512" transform="translate(-2.495 -22.743)"/><path id="Pfad_35" data-name="Pfad 35" d="M92.15 27.892h-1.722v5.28l.96.183c.141.03.2.071.2.184a.806.806 0 01-.141.4h-3.362a1.045 1.045 0 01-.015-.128c0-.253.169-.366.438-.465l.479-.169v-5.28h-1.043a1.045 1.045 0 01-.015-.128c0-.268.169-.409.438-.479l.62-.169v-.143c0-2.273 1.384-3.373 2.6-3.373.706 0 .988.311.988.748a.724.724 0 01-.424.663 1.371 1.371 0 00-.932-.409c-.606 0-.819.339-.819 1.171 0 .438.028 1.342.028 1.342h1.879z" transform="translate(.087 -23.601)"/><path id="Pfad_36" data-name="Pfad 36" d="M94.173 27.388h.042c.3-.48.82-1.3 1.737-1.3.663 0 .974.311.974.748a1.21 1.21 0 01-.254.721 2.172 2.172 0 00-.945-.212 1.628 1.628 0 00-1.469.721v4.25l1.017.183c.141.028.2.071.2.184a.961.961 0 01-.141.394h-3.42a1.149 1.149 0 01-.013-.126c0-.254.169-.367.437-.465l.495-.169v-5.226l-1-.155a1.144 1.144 0 01-.013-.141c0-.241.183-.41.522-.438l1.92-.183z" transform="translate(1.427 -22.743)"/><path id="Pfad_37" data-name="Pfad 37" d="M102.748 29.6a3.384 3.384 0 01-3.431 3.643c-1.764 0-3.219-1.13-3.219-3.5a3.433 3.433 0 013.488-3.657c1.764 0 3.162 1.058 3.162 3.515m-5.138.056c0 1.892.762 2.739 1.807 2.739s1.821-.819 1.821-2.711-.776-2.768-1.821-2.768-1.807.834-1.807 2.739" transform="translate(2.903 -22.743)"/><path id="Pfad_38" data-name="Pfad 38" d="M112.685 32.314l.806.183c.14.03.2.071.2.184a.806.806 0 01-.14.4h-3.191a1.046 1.046 0 01-.015-.128c0-.253.169-.381.438-.465l.465-.169v-3.577c0-1.228-.607-1.567-1.271-1.567a2.3 2.3 0 00-1.666.663 3.874 3.874 0 01.071.734v3.741l.819.183c.141.03.2.071.2.184a.806.806 0 01-.141.4h-3.206a1.269 1.269 0 01-.012-.128c0-.253.169-.381.437-.465l.467-.169v-3.576c0-1.228-.594-1.567-1.257-1.567a2.316 2.316 0 00-1.581.593v4.545l.806.183c.14.03.2.071.2.184a.99.99 0 01-.14.4h-3.206a1.146 1.146 0 01-.013-.128c0-.253.169-.366.437-.465l.495-.169v-5.227l-1-.156a1.042 1.042 0 01-.015-.141c0-.239.184-.409.523-.437l1.92-.184-.085.918h.043a2.908 2.908 0 012.23-1 1.851 1.851 0 011.822 1.143 3.133 3.133 0 012.4-1.143c1.356 0 2.175.861 2.175 2.484z" transform="translate(4.82 -22.743)"/><path id="Pfad_39" data-name="Pfad 39" d="M117.474 27.48h-1.934v4.12c0 .636.2 1.158.9 1.158a1.952 1.952 0 001.116-.339 1.054 1.054 0 01.126.467c0 .141-.494.8-1.778.8a1.622 1.622 0 01-1.794-1.836v-4.37h-1.058a1.045 1.045 0 01-.015-.128.476.476 0 01.438-.479l.691-.169.334-1.904h1.045v1.9h2.088z" transform="translate(8.745 -23.189)"/><path id="Pfad_40" data-name="Pfad 40" d="M119.5 27.942h.028a2.745 2.745 0 012.175-1.017c1.412 0 2.215.832 2.215 2.485v3.741l.82.183c.141.028.2.07.2.183a.99.99 0 01-.14.4h-3.2a1.05 1.05 0 01-.015-.126c0-.254.169-.382.437-.465l.467-.169V29.58c0-1.2-.65-1.568-1.37-1.568a2.122 2.122 0 00-1.608.65v4.49l.791.183c.14.028.2.07.2.183a.806.806 0 01-.14.4h-3.22a1.15 1.15 0 01-.013-.126c0-.254.169-.382.438-.465l.494-.169v-8.57l-1-.141a1.388 1.388 0 01-.015-.155c0-.239.184-.409.523-.438l1.934-.183z" transform="translate(10.125 -23.579)"/><path id="Pfad_41" data-name="Pfad 41" d="M124.889 29.689c.015 1.75.849 2.569 2.062 2.569a2.541 2.541 0 001.766-.65.71.71 0 01.211.48c0 .354-.931 1.158-2.5 1.158-1.736 0-3.035-.988-3.035-3.444s1.482-3.713 3.092-3.713a2.193 2.193 0 012.4 2.386 5.076 5.076 0 01-.169 1.214zm2.472-.749a2.957 2.957 0 00.071-.607c0-.776-.284-1.44-1.1-1.44s-1.332.665-1.432 2.047z" transform="translate(12.315 -22.743)"/><path id="Pfad_42" data-name="Pfad 42" d="M129.42 27.825a.868.868 0 110-1.736.868.868 0 110 1.736m0 5.436a.869.869 0 110-1.737.869.869 0 110 1.737" transform="translate(14.091 -22.743)"/></g><g id="Gruppe_19" data-name="Gruppe 19" transform="translate(26.657 56.568)"><path id="Pfad_20" data-name="Pfad 20" d="M42.314 64.473a7.693 7.693 0 00.058-.924c0-.173 0-.379-.022-.605 2.686-.042 5.034-1.969 5.034-4.192a4.011 4.011 0 00-1.151-2.489c.09-.022.184-.043.278-.063a4.478 4.478 0 011.508 3.084c0 2.663-2.663 5.137-5.7 5.19m-2.7-9.276a1.781 1.781 0 00-.336-.793c.011-.273.121-.537.562-.32-.235.241-.058.672-.058.672s.49-.226.383-.547c.721.173.206 1.135-.551.988m-.62 1.37a2.838 2.838 0 00-.562-1.119 1.544 1.544 0 00-1.155-.609 2.77 2.77 0 00-.9.221 2.475 2.475 0 01-.284-.783c0-.194.331-.394.962-.394 1.386 0 2.216.625 2.216 1.676a2.507 2.507 0 01-.278 1.009m3.562 17.882a.806.806 0 01.336.063 19.14 19.14 0 002 3.225l.016.016.02-.005a15.5 15.5 0 012.149-.2h.019a.337.337 0 01.246.063.376.376 0 01.079.273 1.515 1.515 0 01-.19.693 1.876 1.876 0 00-1.47-.446 2.663 2.663 0 00-.625.1l-.058.015-.063.016.42.426c.658.651 1.22 1.213 1.22 1.591a.951.951 0 01-.421.651 3.607 3.607 0 00-1.419-2.132l-.058-.047-.009.247c-.005.163-.022.41-.022.672 0 1.307-.137 1.508-.589 1.508a.812.812 0 01-.241-.047 2.172 2.172 0 00.356-1.46v-.342l-.005-.268a4.416 4.416 0 01.058-.7l.009-.1-.067-.011a8.37 8.37 0 00-.909-.083 1.947 1.947 0 00-1.4.356 1.1 1.1 0 01-.426-.64c0-.273.168-.3.394-.3.11 0 .217.022.363.036a9.137 9.137 0 001.56.106h.052l-.016-.052a10.594 10.594 0 00-1.781-2.706c.085-.316.168-.52.473-.52m-8.3 3.226l-.022.052h.052a9.144 9.144 0 001.561-.106c.147-.015.251-.036.362-.036.221 0 .394.027.394.3a1.1 1.1 0 01-.425.64 1.951 1.951 0 00-1.4-.356 8.211 8.211 0 00-.909.083l-.032.005-.036.005.011.1a4.58 4.58 0 01.058.7l-.005.268-.005.342a2.164 2.164 0 00.358 1.46.781.781 0 01-.242.047c-.457 0-.589-.2-.589-1.508 0-.262-.009-.51-.02-.672l-.016-.247-.052.047a3.579 3.579 0 00-1.413 2.122.943.943 0 01-.425-.651c0-.378.568-.94 1.218-1.591l.373-.379.054-.047-.126-.031a2.639 2.639 0 00-.625-.1 1.885 1.885 0 00-1.471.446 1.514 1.514 0 01-.188-.693.376.376 0 01.078-.273.346.346 0 01.253-.063h.015a15.367 15.367 0 012.149.2l.027.005.009-.016a18.711 18.711 0 002.008-3.225.756.756 0 01.331-.063c.3 0 .389.2.472.52a10.388 10.388 0 00-1.775 2.706M30.1 59.284a4.478 4.478 0 011.5-3.084c.1.02.19.042.284.063a3.992 3.992 0 00-1.155 2.489c0 2.243 2.4 4.192 5.112 4.192a7.322 7.322 0 00-.027.605 8.64 8.64 0 00.047.924c-3.067-.016-5.768-2.505-5.768-5.19m20.582 4.722c1.376 2.181 2.453 2.144 4.081 2.144a11.586 11.586 0 01-2.656-3.031l-2.516-4.024a5.981 5.981 0 00-1.849-3.268 3.128 3.128 0 00.752-.373c-1.639 0-3.268-.835-4.166-.835a.845.845 0 00-.945.8c.038.51.562 1.023 1.524 1.023a4.917 4.917 0 00.8-.078 3.8 3.8 0 01.945 2.321c0 1.766-2.107 3.136-4.235 3.136-.12 0-.235 0-.351-.015a4.71 4.71 0 01-.835-2c0-1.4.913-2.542.913-3.928a2.6 2.6 0 00-.582-1.619 2.452 2.452 0 00.615-.745 1.46 1.46 0 01-.594.073c-1.019 0-1.854-.262-2.663-.262-.463 0-.584.143-.584.278a.285.285 0 00.022.126 2.754 2.754 0 00-.531-.147 3.834 3.834 0 00-.767-.069c-.987 0-1.334.409-1.334.767a3.02 3.02 0 00.5 1.261 2.952 2.952 0 011.05-.327c.526 0 .987.5 1.235 1.088a4.824 4.824 0 01-.772.058 5.861 5.861 0 01-1.744-.342c-.016 0-.042.005-.042.027 0 .136.273.488.808.682a10.35 10.35 0 001.939.4.831.831 0 01-.379.426.216.216 0 01-.125.005 8.913 8.913 0 01-1.876-.562c-.031-.011-.047.005-.047.036 0 .367.956 1.187 1.817 1.5a9.6 9.6 0 00-2.032 3.279 3.896 3.896 0 01-.358.015c-2.127 0-4.233-1.37-4.233-3.136a3.792 3.792 0 01.945-2.321 4.89 4.89 0 00.8.078c.96 0 1.486-.514 1.522-1.023a.842.842 0 00-.945-.8c-.9 0-2.521.835-4.165.835a3.249 3.249 0 00.75.373 5.989 5.989 0 00-1.849 3.268l-2.511 4.024a11.6 11.6 0 01-2.664 3.031c1.623 0 2.706.038 4.083-2.144l1.287-2.059a6.543 6.543 0 00.351.783l-2.563 4.1a11.6 11.6 0 01-2.663 3.031c1.629 0 2.7.036 4.081-2.144l2.205-3.53c.168.173.342.347.526.51l-3.115 4.985a11.521 11.521 0 01-2.664 3.026c1.629 0 2.706.042 4.081-2.138L32 65.713c.2.126.4.247.62.363l-3.709 5.936a11.659 11.659 0 01-2.663 3.026c1.629 0 2.706.036 4.087-2.138l3.814-6.109c.226.083.457.168.689.241l-4.313 6.9a11.685 11.685 0 01-2.659 3.026c1.623 0 2.706.038 4.076-2.138l4.6-7.353a1.348 1.348 0 01.143.02 3.842 3.842 0 01.21 1.14c0 2.312-1.513 4.354-3.336 5.931a1.548 1.548 0 00.5.069 4.578 4.578 0 00.793-.052 18.564 18.564 0 01-1.786 2.836 13.7 13.7 0 00-2.033-.188c-.593 0-.662.346-.662.656a1.553 1.553 0 00.546 1.208c.11-.273.332-.64 1.43-.64a.954.954 0 01.11.005c-.32.356-1.323 1.166-1.323 1.822a1.2 1.2 0 001.1 1.083 1.42 1.42 0 01-.036-.368 2.855 2.855 0 01.866-1.58 2.129 2.129 0 00-.005.268c0 1.249.116 1.828.909 1.828a1.289 1.289 0 00.752-.278 1.711 1.711 0 01-.542-1.549c0-.184 0-.363.005-.609a4.623 4.623 0 00-.026-.531 3.9 3.9 0 01.615-.036s1.13-.09 1.4.5c.3-.284.75-.678.75-1.113 0-.289-.136-.62-.719-.62-.221 0-.914.136-1.491.136a14.959 14.959 0 011.45-2.1 1.666 1.666 0 00.546.846 6 6 0 011.067-2.851 13.522 13.522 0 01.2 2.478c0 3.111-.75 5.411-2.337 5.847a1.358 1.358 0 001.1.683c.577 0 .9-.658 1.218-1.276.168.456.631 1.58 1.1 1.58s.931-1.124 1.1-1.58c.32.619.64 1.276 1.218 1.276a1.346 1.346 0 001.1-.683c-1.586-.436-2.337-2.737-2.337-5.847a13.646 13.646 0 01.2-2.478 5.942 5.942 0 011.063 2.852 1.669 1.669 0 00.547-.846 14.959 14.959 0 011.45 2.1c-.578 0-1.272-.136-1.493-.136-.582 0-.719.331-.719.62 0 .436.446.83.752 1.113.273-.589 1.4-.5 1.4-.5a3.93 3.93 0 01.62.036 2.907 2.907 0 00-.027.531v.609a1.71 1.71 0 01-.541 1.549 1.28 1.28 0 00.75.278c.793 0 .909-.578.909-1.828a2.129 2.129 0 00-.005-.268 2.858 2.858 0 01.867 1.58 1.219 1.219 0 01-.036.368 1.2 1.2 0 001.1-1.083c0-.656-1-1.466-1.323-1.822a1 1 0 01.11-.005c1.1 0 1.318.367 1.428.64a1.549 1.549 0 00.546-1.208c0-.311-.067-.656-.662-.656a13.712 13.712 0 00-2.033.188 18.775 18.775 0 01-1.786-2.836 4.589 4.589 0 00.793.052 1.521 1.521 0 00.5-.069c-1.817-1.576-3.335-3.619-3.335-5.931a3.8 3.8 0 01.21-1.14 1.276 1.276 0 01.141-.02l4.6 7.353c1.384 2.179 2.461 2.139 4.088 2.139a11.613 11.613 0 01-2.663-3.026l-4.313-6.9c.237-.073.463-.157.689-.241l3.819 6.107c1.376 2.175 2.453 2.138 4.081 2.138a11.8 11.8 0 01-2.664-3.026l-3.7-5.936q.317-.173.615-.363l3.037 4.859c1.377 2.18 2.453 2.138 4.081 2.138a11.485 11.485 0 01-2.663-3.026L47.451 64.7c.184-.163.358-.336.52-.51l2.212 3.53c1.376 2.18 2.453 2.144 4.081 2.144a11.736 11.736 0 01-2.664-3.032l-2.563-4.1a5.633 5.633 0 00.352-.783z" transform="translate(-23.355 -53.321)" fill="#161615"/><path id="Rechteck_6" data-name="Rechteck 6" transform="translate(39.572 1.345)" fill="#161615" d="M0 0h4.707v26.896H0z"/><path id="Rechteck_7" data-name="Rechteck 7" transform="translate(39.572 28.105)" fill="#d9000d" d="M0 0h4.707v27.033H0z"/><path id="Rechteck_8" data-name="Rechteck 8" transform="translate(39.572 55.137)" fill="#ffc600" d="M0 0h4.707v26.896H0z"/><path id="Pfad_21" data-name="Pfad 21" d="M65.633 65.272v-4.79h3.662v-1.114h-3.662v-4.119h3.973l.094-1.113h-5.47v11.136zm7.922-6.872c.824 0 1.261.631 1.261 1.7a4.337 4.337 0 01-.032.562h-2.811c.063-1.45.662-2.259 1.581-2.259m2.616 6.151l-.483-.918a2.27 2.27 0 01-1.634.678c-1.3 0-2.017-.857-2.1-2.664h3.955a11.383 11.383 0 00.094-1.5c0-1.854-.9-2.811-2.368-2.811-1.619 0-2.959 1.229-2.959 3.971 0 2.921 1.229 4.166 3.184 4.166a2.872 2.872 0 002.3-.92m4.293-.241c-.9 0-1.713-.715-1.713-2.843 0-2.195.956-2.968 2.165-2.968a1.755 1.755 0 011 .274v4.774a1.738 1.738 0 01-1.455.763m1.551.132h.032v.824h1.193V53.716l-1.3.147v3.714a2.877 2.877 0 00-1.1-.195c-1.649 0-3.424 1-3.424 4.13 0 2.825 1.244 3.955 2.71 3.955A2.1 2.1 0 0082 64.447m5.744-6.047c.819 0 1.255.631 1.255 1.7a4.39 4.39 0 01-.031.562h-2.811c.069-1.45.662-2.259 1.587-2.259m2.61 6.151l-.483-.918a2.266 2.266 0 01-1.629.678c-1.308 0-2.017-.857-2.1-2.664H90.1a11.383 11.383 0 00.094-1.5c0-1.854-.9-2.811-2.37-2.811-1.612 0-2.952 1.229-2.952 3.971 0 2.921 1.224 4.166 3.178 4.166a2.874 2.874 0 002.306-.92m5.144-7.048a1.827 1.827 0 00-.709-.126 1.609 1.609 0 00-1.629 1.193h-.031v-1.05h-1.2v7.747h1.308v-5.678a1.569 1.569 0 012.1-.925zm4.229 3.4h-.4c-1.759 0-3.225.6-3.225 2.391a2.054 2.054 0 002.064 2.164 1.742 1.742 0 001.629-1.05h.031c.022.389.038.629.052.855h1.24a14.549 14.549 0 01-.094-1.612v-3.532c0-1.954-.84-2.794-2.422-2.794a3.171 3.171 0 00-2.322.94l.547.873a2.324 2.324 0 011.581-.7c.84 0 1.323.421 1.323 1.728zm0 .972v1.707a1.511 1.511 0 01-1.292.762c-.645 0-1.03-.4-1.03-1.2 0-.851.663-1.208 1.9-1.255zm4.549-8.168l-1.308.147v9.713c0 1.37.6 1.844 1.471 1.844a2.369 2.369 0 001.05-.21l-.116-.972a1.226 1.226 0 01-.483.1c-.452 0-.615-.226-.615-.871zm13.894.42l-2.626 7.7a7.7 7.7 0 00-.473 1.9h-.031a8.832 8.832 0 00-.484-1.923l-2.632-7.68h-1.565v11.143h1.356v-5.295c0-1.339-.016-2.626-.063-3.131h.047c.1.483.49 1.728.9 2.988l1.844 5.437h1.113l1.84-5.437c.42-1.26.787-2.505.9-2.988h.048c-.048.467-.063 1.791-.063 3.131v5.294h1.356V54.136zm4.407 1.518a.928.928 0 10-.888-.935.868.868 0 00.888.935m.647 1.871h-1.306v7.747h1.308zm4.89.918c.9 0 1.339.537 1.339 1.844v4.985h1.3v-5.081c0-2.1-.866-2.858-2.259-2.858a2.414 2.414 0 00-2.048 1.066h-.031v-.871h-1.187v7.747h1.307V59.3a2.079 2.079 0 011.581-.857m5.258-2.789a.928.928 0 10-.888-.935.868.868 0 00.888.935m.647 1.871h-1.308v7.747h1.308zm5.905.629a2.478 2.478 0 00-1.965-.824 2.093 2.093 0 00-2.243 2 2.635 2.635 0 001.544 2.312l.488.305c.741.467 1.13.725 1.13 1.471 0 .5-.42.888-1.2.888a2.08 2.08 0 01-1.565-.763l-.625 1.035a2.8 2.8 0 002.175.888 2.2 2.2 0 002.469-2.18c0-1.146-.647-1.775-1.692-2.406l-.483-.289c-.7-.421-1.019-.741-1.019-1.323 0-.452.373-.826 1.066-.826a1.836 1.836 0 011.356.647zm5.264 6.971l-.179-1.045a1.6 1.6 0 01-.81.226c-.662 0-.918-.327-.918-1.424v-4.291h1.7l.163-1.066h-1.859v-2.16h-1.162l-.147 2.16-.935.194v.873h.935v4.47c0 1.712.678 2.406 2 2.406a2.058 2.058 0 001.214-.342m4.837-7.617a1.827 1.827 0 00-.709-.126 1.608 1.608 0 00-1.629 1.193h-.031v-1.05h-1.2v7.747h1.308v-5.679a1.5 1.5 0 011.455-1.05 1.569 1.569 0 01.646.125zm5.007.016l-1.1 4.313a12.5 12.5 0 00-.452 2.243h-.032a11.714 11.714 0 00-.5-2.265l-1.208-4.291h-1.4l2.5 7.733-.116.4c-.336 1.193-.756 1.776-1.676 1.776a1.253 1.253 0 01-.551-.116v1.13a1.331 1.331 0 00.631.147c1.533 0 2.211-.987 2.778-2.874l2.417-8.2z" transform="translate(-9.261 -53.185)" fill="#161615"/><path id="Pfad_22" data-name="Pfad 22" d="M63.762 73.426c0 2.9 1.307 4.065 3.015 4.065s3.1-1.182 3.1-4.065c0-2.858-1.308-4.072-3.016-4.072-1.665 0-3.1 1.214-3.1 4.072m4.759 0c0 2.048-.631 2.9-1.7 2.9s-1.707-.857-1.707-2.9.629-2.959 1.69-2.959 1.713.9 1.713 2.959m6.167-2.811l.157-1.066h-1.733v-1.388c0-1.013.336-1.354.951-1.354a1.338 1.338 0 01.709.21l.273-1.083a2.215 2.215 0 00-1.1-.289 2.073 2.073 0 00-2.144 2.37v1.549l-.94.179v.873h.94V77.3h1.308v-6.685zm9.217-1.261c0 1.455-.808 2.3-2.5 2.3h-.615v-4.38h.678c1.659 0 2.437.678 2.437 2.08m-3.115 3.409h.615c.257 0 .515-.015.756-.031l2.308 4.568h1.65L83.5 72.391a3.132 3.132 0 001.9-3.115c0-2.049-1.256-3.116-3.935-3.116h-2.08V77.3h1.4zm9-2.343c.824 0 1.261.631 1.261 1.7a4.123 4.123 0 01-.038.562h-2.799c.063-1.45.663-2.259 1.581-2.259m2.616 6.151l-.488-.918a2.254 2.254 0 01-1.629.678c-1.307 0-2.017-.857-2.1-2.664h3.95a10.374 10.374 0 00.1-1.5c0-1.854-.9-2.811-2.374-2.811-1.612 0-2.953 1.229-2.953 3.971 0 2.921 1.23 4.166 3.179 4.166a2.875 2.875 0 002.31-.92m5.485-6.393a2.482 2.482 0 00-1.97-.824 2.1 2.1 0 00-2.243 2 2.641 2.641 0 001.549 2.312l.484.305c.745.467 1.128.725 1.128 1.471 0 .5-.414.888-1.191.888a2.073 2.073 0 01-1.565-.763l-.626 1.028a2.819 2.819 0 002.18.888 2.2 2.2 0 002.469-2.18c0-1.146-.647-1.775-1.7-2.406l-.483-.289c-.694-.421-1.014-.741-1.014-1.323 0-.452.367-.826 1.066-.826a1.836 1.836 0 011.356.647zm4.26.242c.824 0 1.26.631 1.26 1.7a4.656 4.656 0 01-.031.562h-2.805c.063-1.45.662-2.259 1.581-2.259m2.616 6.151l-.483-.918a2.285 2.285 0 01-1.634.678c-1.308 0-2.017-.857-2.1-2.664h3.955a11.112 11.112 0 00.1-1.5c0-1.854-.9-2.811-2.375-2.811-1.612 0-2.952 1.229-2.952 3.971 0 2.921 1.229 4.166 3.178 4.166a2.878 2.878 0 002.312-.92m4.759-3.635h-.4c-1.759 0-3.225.6-3.225 2.391a2.054 2.054 0 002.064 2.164 1.742 1.742 0 001.629-1.05h.031c.016.389.038.629.052.855h1.24a14.553 14.553 0 01-.094-1.612v-3.546c0-1.954-.84-2.794-2.422-2.794a3.167 3.167 0 00-2.321.94l.546.873a2.324 2.324 0 011.581-.7c.84 0 1.323.421 1.323 1.728zm0 .972v1.707a1.511 1.511 0 01-1.292.762c-.646 0-1.03-.4-1.03-1.2 0-.851.663-1.208 1.9-1.255zm6.823-4.376a1.833 1.833 0 00-.709-.126 1.608 1.608 0 00-1.629 1.193h-.032v-1.05h-1.191V77.3h1.3v-5.681a1.5 1.5 0 011.455-1.05 1.569 1.569 0 01.646.125zm5.795.6a2.438 2.438 0 00-1.97-.777c-1.529 0-3.241 1.083-3.241 4.056 0 3.031 1.37 4.081 3.1 4.081a2.55 2.55 0 002.017-.81l-.535-.9a1.727 1.727 0 01-1.356.551c-1.113 0-1.869-.746-1.869-3.02 0-2.049.871-2.843 1.985-2.843a1.766 1.766 0 011.325.584zm4.26.336c.9 0 1.339.537 1.339 1.844V77.3h1.307v-5.088c0-2.048-.855-2.858-2.211-2.858a2.311 2.311 0 00-1.986.988h-.031v-4.6l-1.308.147V77.3h1.308v-5.976a2.087 2.087 0 011.581-.857m4.423 9.088a2.546 2.546 0 001.869-2.469c0-1.066-.436-1.581-1.061-1.581a.805.805 0 00-.84.873.849.849 0 00.889.918h.047a1.741 1.741 0 01-1.177 1.692zm12.844-13.4h-7.439v1.113h2.968V77.3h1.408V67.274h2.968zm2.453 4.26c.824 0 1.26.631 1.26 1.7a4.39 4.39 0 01-.031.562h-2.811c.063-1.45.662-2.259 1.581-2.259m2.616 6.151l-.483-.918a2.273 2.273 0 01-1.634.678c-1.3 0-2.017-.857-2.1-2.664h3.956a11.386 11.386 0 00.094-1.5c0-1.854-.9-2.811-2.37-2.811-1.618 0-2.957 1.229-2.957 3.971 0 2.921 1.229 4.166 3.183 4.166a2.874 2.874 0 002.306-.92m6.44-6.44a2.448 2.448 0 00-1.97-.777c-1.533 0-3.246 1.083-3.246 4.056 0 3.031 1.372 4.081 3.1 4.081a2.542 2.542 0 002.017-.81l-.531-.9a1.743 1.743 0 01-1.354.551c-1.113 0-1.876-.746-1.876-3.02 0-2.049.873-2.843 1.986-2.843a1.737 1.737 0 011.323.584zm4.26.336c.9 0 1.339.537 1.339 1.844V77.3h1.3v-5.088c0-2.048-.851-2.858-2.207-2.858a2.292 2.292 0 00-1.985.988h-.032v-4.6l-1.307.147V77.3h1.307v-5.976a2.079 2.079 0 011.581-.857m7.486 0c.9 0 1.339.537 1.339 1.844V77.3h1.307v-5.088c0-2.1-.871-2.858-2.258-2.858a2.4 2.4 0 00-2.049 1.066h-.036v-.871h-1.193V77.3h1.308v-5.976a2.087 2.087 0 011.581-.857m4.244 2.959c0 2.9 1.307 4.065 3.015 4.065s3.1-1.182 3.1-4.065c0-2.858-1.308-4.072-3.015-4.072-1.666 0-3.1 1.214-3.1 4.072m4.759 0c0 2.048-.631 2.9-1.692 2.9s-1.712-.857-1.712-2.9.629-2.959 1.7-2.959 1.708.9 1.708 2.959m4.291-7.686l-1.3.147V75.6c0 1.37.593 1.844 1.464 1.844a2.371 2.371 0 001.052-.21l-.116-.972a1.235 1.235 0 01-.484.1c-.452 0-.615-.226-.615-.871zm2.033 7.686c0 2.9 1.309 4.065 3.02 4.065 1.692 0 3.1-1.182 3.1-4.065 0-2.858-1.308-4.072-3.02-4.072-1.661 0-3.1 1.214-3.1 4.072m4.765 0c0 2.048-.631 2.9-1.7 2.9s-1.712-.857-1.712-2.9.631-2.959 1.7-2.959 1.712.9 1.712 2.959m6.677-1.471c0 1.113-.609 1.549-1.356 1.549-.709 0-1.339-.436-1.339-1.549s.631-1.551 1.376-1.551c.71 0 1.319.437 1.319 1.551M195.6 77.9c0-1.471-1.1-2.055-2.563-2.055h-.988c-.562 0-.788-.226-.788-.546 0-.4.368-.615.625-.725a3.305 3.305 0 00.4.016 2.521 2.521 0 002.679-2.632 2.634 2.634 0 00-.367-1.386h.966l.179-1.019h-2.359a2.773 2.773 0 00-1.029-.195 2.439 2.439 0 00-2.632 2.6 2.407 2.407 0 001.323 2.374v.032a1.418 1.418 0 00-.94 1.255 1.262 1.262 0 00.5 1.083v.032a2.19 2.19 0 00-1.292 1.891c0 1.339.888 2.1 2.532 2.1 2.29 0 3.745-1.161 3.745-2.82m-3.632 1.695c-.92 0-1.372-.42-1.372-1.24a1.437 1.437 0 01.788-1.354 3.619 3.619 0 00.6.047h.982c.793 0 1.308.289 1.308 1.029 0 .793-.725 1.518-2.306 1.518m8.972-10.054l-1.1 4.313a12.618 12.618 0 00-.452 2.243h-.031a11.814 11.814 0 00-.5-2.265l-1.209-4.291h-1.4l2.5 7.733-.116.4c-.336 1.193-.757 1.776-1.676 1.776a1.2 1.2 0 01-.546-.116v1.13a1.281 1.281 0 00.624.147c1.534 0 2.212-.987 2.78-2.874l2.417-8.2z" transform="translate(-9.423 -49.072)" fill="#161615"/><path id="Pfad_23" data-name="Pfad 23" d="M67.323 84.912h-.4c-1.76 0-3.23.6-3.23 2.391a2.055 2.055 0 002.07 2.164 1.742 1.742 0 001.629-1.05h.031c.016.389.031.629.047.855h1.245a13.873 13.873 0 01-.1-1.612v-3.536c0-1.954-.835-2.794-2.417-2.794a3.2 3.2 0 00-2.328.94l.551.873a2.315 2.315 0 011.581-.7c.835 0 1.325.421 1.325 1.728zm0 .972v1.707a1.519 1.519 0 01-1.292.762c-.647 0-1.035-.4-1.035-1.2 0-.851.662-1.208 1.907-1.255zm6.146-3.441c.9 0 1.339.537 1.339 1.844v4.985h1.308v-5.085c0-2.1-.873-2.858-2.259-2.858a2.4 2.4 0 00-2.048 1.071h-.038v-.871h-1.192v7.747h1.308V83.3a2.079 2.079 0 011.581-.857m7.312 5.863c-.9 0-1.712-.715-1.712-2.843 0-2.195.951-2.968 2.164-2.968a1.737 1.737 0 011 .274v4.774a1.735 1.735 0 01-1.451.763m1.529.141h.036v.824h1.193V77.716l-1.307.147v3.714a2.861 2.861 0 00-1.1-.195c-1.643 0-3.42 1-3.42 4.13 0 2.825 1.24 3.955 2.711 3.955a2.076 2.076 0 001.885-1.019m11.72-9.665a3.509 3.509 0 00-2.437-.84 2.591 2.591 0 00-2.859 2.536c0 1.529.71 2.275 1.939 3.3l.9.763c.935.788 1.386 1.307 1.386 2.274 0 .757-.615 1.386-1.712 1.386a3.128 3.128 0 01-2.16-.966l-.568 1.224a3.877 3.877 0 002.758 1c2 0 3.1-1.146 3.1-2.842a4.035 4.035 0 00-1.871-3.194l-.9-.741c-1.019-.824-1.486-1.377-1.486-2.243a1.309 1.309 0 011.471-1.292 2.685 2.685 0 011.853.694zm4.387 9.471a1.954 1.954 0 01-1.162-.336v-4.76a1.943 1.943 0 011.518-.715c.951 0 1.645.762 1.645 2.843 0 2.243-.8 2.968-2 2.968m0 1.166c1.759 0 3.357-1.1 3.357-4.229 0-2.726-1.046-3.861-2.648-3.861a2.137 2.137 0 00-1.949 1.019h-.032v-.824h-1.2V92.5h1.307v-3.275a3.191 3.191 0 001.162.195m8.184-4.508h-.4c-1.76 0-3.226.6-3.226 2.391a2.055 2.055 0 002.066 2.164 1.742 1.742 0 001.629-1.05h.031c.016.389.031.629.047.855h1.245a14.221 14.221 0 01-.094-1.612v-3.536c0-1.954-.84-2.794-2.422-2.794a3.2 3.2 0 00-2.328.94l.553.873a2.309 2.309 0 011.58-.7c.84 0 1.325.421 1.325 1.728zm0 .972v1.707a1.519 1.519 0 01-1.292.762c-.647 0-1.035-.4-1.035-1.2 0-.851.662-1.208 1.907-1.255zm8.116-3.778a2.448 2.448 0 00-1.97-.777c-1.534 0-3.241 1.083-3.241 4.056 0 3.031 1.37 4.081 3.1 4.081a2.55 2.55 0 002.017-.81l-.535-.9a1.737 1.737 0 01-1.356.551c-1.113 0-1.869-.746-1.869-3.02 0-2.049.871-2.843 1.985-2.843a1.766 1.766 0 011.325.584zm3.761.289c.819 0 1.255.631 1.255 1.7a4.389 4.389 0 01-.031.562H116.9c.063-1.45.662-2.259 1.581-2.259m2.61 6.151l-.483-.918a2.257 2.257 0 01-1.629.678c-1.308 0-2.017-.857-2.1-2.664h3.951a10.375 10.375 0 00.1-1.5c0-1.854-.9-2.811-2.375-2.811-1.612 0-2.952 1.229-2.952 3.971 0 2.921 1.224 4.166 3.178 4.166a2.853 2.853 0 002.306-.92" transform="translate(-9.448 -44.91)" fill="#161615"/></g></g></svg>